<svg width="585" height="335" fill="none" xmlns="http://www.w3.org/2000/svg"><path fill="#1C1C1C" d="M0 0h585v335H0z"></path><path d="M63.888 65.137c-1.285 0-2.279-.324-2.98-.971-.698-.652-1.047-1.586-1.047-2.803 0-1.185.324-2.105.971-2.761.647-.657 1.572-.985 2.775-.985.734 0 1.36.14 1.88.417.52.278.891.675 1.115 1.19l-1.251.977a2.083 2.083 0 0 0-.773-.745 2.024 2.024 0 0 0-1.025-.267c-.62 0-1.103.183-1.45.547-.346.365-.519.884-.519 1.559 0 .738.214 1.301.643 1.688.428.388 1.036.582 1.825.582.332 0 .663-.017.991-.048.333-.032.656-.076.97-.13l.178 1.545a7.905 7.905 0 0 1-1.148.164c-.392.027-.777.04-1.155.04Zm7.627 0c-1.03 0-1.828-.328-2.393-.985-.565-.656-.847-1.581-.847-2.775 0-1.199.282-2.124.847-2.775.565-.657 1.363-.985 2.393-.985 1.03 0 1.827.328 2.392.985.565.651.848 1.576.848 2.775 0 1.194-.283 2.12-.848 2.775-.565.657-1.362.985-2.392.985Zm0-1.572c.478 0 .847-.19 1.107-.568.264-.383.397-.923.397-1.62 0-.702-.133-1.242-.397-1.62-.26-.378-.629-.567-1.107-.567-.479 0-.85.189-1.115.567-.26.378-.39.918-.39 1.62 0 .697.13 1.237.39 1.62.265.378.636.568 1.115.568ZM81.26 65v-4.443c0-.438-.1-.775-.301-1.012-.196-.237-.476-.355-.84-.355-1.017 0-1.525.67-1.525 2.01V65h-1.689v-7.246h1.518l.143 1.312h.192c.06-.487.23-.85.513-1.087.282-.241.706-.362 1.271-.362.766 0 1.358.233 1.777.698.42.464.63 1.12.63 1.968V65h-1.69Zm6.52.137c-1.085 0-1.933-.069-2.544-.205l.199-1.586c.533.073.99.127 1.374.164.382.036.706.055.97.055.666 0 1.147-.055 1.443-.165.3-.109.45-.282.45-.52 0-.154-.042-.27-.129-.348-.087-.082-.223-.148-.41-.198l-2.085-.581c-.579-.16-1.007-.378-1.285-.656-.278-.283-.417-.68-.417-1.19 0-.788.317-1.367.95-1.736.638-.37 1.63-.554 2.974-.554.323 0 .647.012.97.034.324.023.661.057 1.012.103l-.178 1.531a22.832 22.832 0 0 0-1.046-.075c-.296-.014-.562-.02-.8-.02-.756 0-1.303.052-1.64.157-.337.105-.506.273-.506.505 0 .156.05.27.15.342.1.073.256.137.465.192l1.75.471c.68.174 1.18.417 1.504.732.328.314.493.743.493 1.285 0 .77-.3 1.34-.896 1.709-.593.37-1.515.554-2.769.554Zm10.422 0c-1.194 0-2.055-.242-2.584-.725-.524-.483-.786-1.255-.786-2.317v-2.81h-1.77v-1.531h1.77v-2.188h1.682v2.188h3.247v1.531h-3.247v2.673c0 .565.141.975.424 1.23.287.251.754.377 1.401.377.214 0 .444-.012.69-.035.246-.027.527-.061.841-.102l.164 1.545a10.072 10.072 0 0 1-1.832.164Zm25.185 43.931-.096-1.599h-.157c-.059.556-.287.973-.684 1.251-.391.278-.911.417-1.558.417-.766 0-1.36-.185-1.784-.554-.42-.374-.629-.905-.629-1.593 0-.793.282-1.401.847-1.825.566-.424 1.365-.636 2.4-.636.551 0 1.03.044 1.435.13v-.143c0-.424-.166-.734-.499-.93-.332-.201-.829-.31-1.49-.328l-1.805-.048.137-1.524 1.531.02c1.267.018 2.208.278 2.824.779.615.497.923 1.224.923 2.181v2.816l1.093.151V109l-2.488.068Zm-.226-3.048a4.356 4.356 0 0 0-.704-.076 16.824 16.824 0 0 0-.69-.013c-1.076 0-1.613.316-1.613.95 0 .57.369.854 1.107.854.424 0 .775-.075 1.053-.225a1.65 1.65 0 0 0 .635-.581c.142-.237.212-.481.212-.732v-.177Zm6.684 3.117c-1.085 0-1.932-.069-2.543-.205l.198-1.586c.533.073.992.127 1.374.164.383.036.707.054.971.054.665 0 1.146-.054 1.442-.164.301-.109.452-.282.452-.519 0-.155-.044-.271-.13-.349-.087-.082-.224-.148-.41-.198l-2.085-.581c-.579-.16-1.008-.378-1.286-.656-.278-.283-.417-.679-.417-1.19 0-.788.317-1.367.951-1.736.638-.369 1.629-.554 2.973-.554.324 0 .647.012.971.034.324.023.661.057 1.012.103l-.178 1.531a24.197 24.197 0 0 0-1.046-.075 17.1 17.1 0 0 0-.8-.021c-.756 0-1.303.053-1.64.158-.338.104-.506.273-.506.506 0 .154.05.268.15.341.1.073.255.137.465.192l1.75.471c.679.174 1.18.417 1.504.732.328.314.492.743.492 1.285 0 .77-.298 1.34-.895 1.709-.593.369-1.516.554-2.769.554Zm5.316 3.144-.068-1.483 1.203-.137c.533-.064.975-.223 1.326-.478.351-.251.648-.645.889-1.183h-.875l-2.611-7.246h1.777l2.024 5.865h.143l1.661-5.865h1.778l-2.058 6.603c-.274.866-.586 1.564-.937 2.092-.346.533-.758.93-1.237 1.19-.478.264-1.05.433-1.716.506l-1.299.136ZM148.566 109v-4.443c0-.438-.1-.775-.301-1.012-.196-.237-.476-.356-.841-.356-1.016 0-1.524.67-1.524 2.01V109h-1.689v-7.246h1.518l.143 1.312h.192c.059-.487.23-.85.513-1.087.282-.241.706-.362 1.271-.362.766 0 1.358.233 1.777.697.42.465.629 1.122.629 1.969V109h-1.688Zm7.866.137c-1.285 0-2.279-.324-2.98-.971-.698-.652-1.046-1.586-1.046-2.803 0-1.185.323-2.105.97-2.761.648-.657 1.573-.985 2.776-.985.734 0 1.36.139 1.88.417.519.278.891.675 1.114 1.19l-1.251.977a2.088 2.088 0 0 0-.773-.745 2.018 2.018 0 0 0-1.025-.267c-.62 0-1.103.183-1.449.547-.346.365-.52.884-.52 1.559 0 .738.215 1.301.643 1.688.428.388 1.037.581 1.825.581.333 0 .663-.015.991-.047.333-.032.657-.076.971-.13l.178 1.545a8.028 8.028 0 0 1-1.149.164c-.392.027-.777.041-1.155.041Zm-58.892 22c-1.285 0-2.279-.324-2.98-.971-.698-.652-1.046-1.586-1.046-2.803 0-1.185.323-2.105.97-2.761.648-.657 1.573-.985 2.776-.985.734 0 1.36.139 1.88.417.52.278.891.675 1.114 1.19l-1.25.977a2.087 2.087 0 0 0-.773-.745 2.022 2.022 0 0 0-1.026-.267c-.62 0-1.103.183-1.449.547-.346.365-.52.884-.52 1.559 0 .738.215 1.301.643 1.688.428.388 1.037.581 1.825.581.333 0 .663-.015.992-.047.332-.032.656-.076.97-.13l.178 1.545a8.016 8.016 0 0 1-1.148.164c-.392.027-.778.041-1.156.041Zm7.627 0c-1.03 0-1.827-.328-2.392-.985-.565-.656-.848-1.581-.848-2.775 0-1.199.283-2.124.848-2.775.565-.657 1.362-.985 2.392-.985 1.03 0 1.828.328 2.393.985.565.651.847 1.576.847 2.775 0 1.194-.282 2.119-.847 2.775-.565.657-1.363.985-2.393.985Zm0-1.573c.479 0 .848-.189 1.108-.567.264-.383.396-.923.396-1.62 0-.702-.132-1.242-.396-1.62-.26-.378-.629-.568-1.108-.568-.478 0-.85.19-1.114.568-.26.378-.39.918-.39 1.62 0 .697.13 1.237.39 1.62.264.378.636.567 1.114.567Zm9.746 1.436v-4.443c0-.438-.1-.775-.3-1.012-.196-.237-.477-.356-.841-.356-1.017 0-1.525.67-1.525 2.01V131h-1.688v-7.246h1.517l.144 1.312h.191c.06-.487.231-.85.513-1.087.283-.241.706-.362 1.272-.362.765 0 1.358.233 1.777.697.419.465.629 1.122.629 1.969V131h-1.689Zm6.52.137c-1.085 0-1.932-.069-2.543-.205l.198-1.586c.533.073.991.127 1.374.164.383.036.707.054.971.054.665 0 1.146-.054 1.442-.164.301-.109.451-.282.451-.519 0-.155-.043-.271-.129-.349-.087-.082-.224-.148-.411-.198l-2.085-.581c-.578-.16-1.007-.378-1.285-.656-.278-.283-.417-.679-.417-1.19 0-.788.317-1.367.95-1.736.639-.369 1.63-.554 2.974-.554.324 0 .647.012.971.034.323.023.661.057 1.012.103l-.178 1.531a24.197 24.197 0 0 0-1.046-.075 17.1 17.1 0 0 0-.8-.021c-.756 0-1.303.053-1.641.158-.337.104-.505.273-.505.506 0 .154.05.268.15.341.1.073.255.137.465.192l1.75.471c.679.174 1.18.417 1.504.732.328.314.492.743.492 1.285 0 .77-.299 1.34-.896 1.709-.592.369-1.515.554-2.768.554Zm10.423 0c-1.194 0-2.056-.242-2.584-.725-.524-.483-.786-1.255-.786-2.317v-2.81h-1.771v-1.531h1.771v-2.188h1.681v2.188h3.247v1.531h-3.247v2.673c0 .565.142.975.424 1.23.287.251.754.376 1.402.376.214 0 .444-.011.69-.034.246-.027.526-.061.841-.102l.164 1.545a10.166 10.166 0 0 1-1.832.164Zm-34.316 22c-1.285 0-2.279-.324-2.98-.971-.698-.652-1.046-1.586-1.046-2.803 0-1.185.323-2.105.97-2.761.648-.657 1.573-.985 2.776-.985.734 0 1.36.139 1.88.417.52.278.891.675 1.114 1.19l-1.25.977a2.087 2.087 0 0 0-.773-.745 2.022 2.022 0 0 0-1.026-.267c-.62 0-1.103.183-1.449.547-.346.365-.52.884-.52 1.559 0 .738.215 1.301.643 1.688.428.388 1.037.581 1.825.581.333 0 .663-.015.992-.047.332-.032.656-.076.97-.13l.178 1.545a8.016 8.016 0 0 1-1.148.164c-.392.027-.778.041-1.156.041Zm7.627 0c-1.03 0-1.827-.328-2.392-.985-.565-.656-.848-1.581-.848-2.775 0-1.199.283-2.124.848-2.775.565-.657 1.362-.985 2.392-.985 1.03 0 1.828.328 2.393.985.565.651.847 1.576.847 2.775 0 1.194-.282 2.119-.847 2.775-.565.657-1.363.985-2.393.985Zm0-1.573c.479 0 .848-.189 1.108-.567.264-.383.396-.923.396-1.62 0-.702-.132-1.242-.396-1.62-.26-.378-.629-.568-1.108-.568-.478 0-.85.19-1.114.568-.26.378-.39.918-.39 1.62 0 .697.13 1.237.39 1.62.264.378.636.567 1.114.567Zm9.746 1.436v-4.443c0-.438-.1-.775-.3-1.012-.196-.237-.477-.356-.841-.356-1.017 0-1.525.67-1.525 2.01V153h-1.688v-7.246h1.517l.144 1.312h.191c.06-.487.231-.85.513-1.087.283-.241.706-.362 1.272-.362.765 0 1.358.233 1.777.697.419.465.629 1.122.629 1.969V153h-1.689Zm6.52.137c-1.085 0-1.932-.069-2.543-.205l.198-1.586c.533.073.991.127 1.374.164.383.036.707.054.971.054.665 0 1.146-.054 1.442-.164.301-.109.451-.282.451-.519 0-.155-.043-.271-.129-.349-.087-.082-.224-.148-.411-.198l-2.085-.581c-.578-.16-1.007-.378-1.285-.656-.278-.283-.417-.679-.417-1.19 0-.788.317-1.367.95-1.736.639-.369 1.63-.554 2.974-.554.324 0 .647.012.971.034.323.023.661.057 1.012.103l-.178 1.531a24.197 24.197 0 0 0-1.046-.075 17.1 17.1 0 0 0-.8-.021c-.756 0-1.303.053-1.641.158-.337.104-.505.273-.505.506 0 .154.05.268.15.341.1.073.255.137.465.192l1.75.471c.679.174 1.18.417 1.504.732.328.314.492.743.492 1.285 0 .77-.299 1.34-.896 1.709-.592.369-1.515.554-2.768.554Zm10.423 0c-1.194 0-2.056-.242-2.584-.725-.524-.483-.786-1.255-.786-2.317v-2.81h-1.771v-1.531h1.771v-2.188h1.681v2.188h3.247v1.531h-3.247v2.673c0 .565.142.975.424 1.23.287.251.754.376 1.402.376.214 0 .444-.011.69-.034.246-.027.526-.061.841-.102l.164 1.545a10.166 10.166 0 0 1-1.832.164Z" fill="#39BBCB"></path><path d="M143.746 62.635v-1.538h6.973v1.538h-6.973Zm0-3.425v-1.538h6.973v1.538h-6.973Zm-80.05 49.927c-1.248 0-2.212-.324-2.891-.971-.675-.652-1.012-1.586-1.012-2.803 0-1.185.287-2.105.861-2.761.58-.657 1.392-.985 2.44-.985 1.012 0 1.794.301 2.345.903.556.601.834 1.474.834 2.618 0 .328-.013.64-.04.936h-4.717c.273 1.003 1.055 1.504 2.344 1.504.32 0 .632-.016.937-.048.31-.036.624-.084.943-.143l.178 1.558a10.63 10.63 0 0 1-1.237.158c-.37.022-.698.034-.985.034Zm-2.256-4.28h3.22c0-.556-.137-.979-.41-1.271-.273-.296-.654-.444-1.142-.444-.474 0-.854.148-1.141.444-.287.296-.463.72-.527 1.271ZM68.035 109l2.632-3.582-2.632-3.664h1.983l1.497 2.379 1.497-2.379h1.982l-2.666 3.609L74.994 109h-1.982l-1.531-2.372L70.018 109h-1.983Zm8.871 3.145v-10.391h1.552l.116 1.312h.117c.154-.966.781-1.449 1.88-1.449.925 0 1.633.326 2.125.978.497.651.746 1.59.746 2.816 0 1.208-.249 2.131-.746 2.769-.492.638-1.198.957-2.119.957-.524 0-.945-.123-1.264-.369-.32-.251-.51-.611-.575-1.08h-.143v4.457h-1.689Zm1.689-6.666c0 .721.12 1.254.362 1.6.246.346.64.52 1.183.52 1.062 0 1.593-.73 1.593-2.188 0-.729-.137-1.287-.41-1.675-.274-.387-.668-.581-1.183-.581-1.03 0-1.545.709-1.545 2.126v.198Zm9.746 3.658c-1.03 0-1.828-.328-2.393-.985-.565-.656-.847-1.581-.847-2.775 0-1.199.282-2.124.847-2.775.566-.657 1.363-.985 2.393-.985 1.03 0 1.827.328 2.393.985.565.651.847 1.576.847 2.775 0 1.194-.282 2.119-.847 2.775-.566.657-1.363.985-2.393.985Zm0-1.573c.479 0 .848-.189 1.107-.567.265-.383.397-.923.397-1.62 0-.702-.132-1.242-.397-1.62-.26-.378-.628-.568-1.107-.568s-.85.19-1.114.568c-.26.378-.39.918-.39 1.62 0 .697.13 1.237.39 1.62.264.378.635.567 1.114.567Zm8.037-1.681v1.654h1.73V109H93.13v-1.463h1.565v-4.32h-1.291v-1.463h2.7l.225 1.723h.226c.073-1.24.709-1.86 1.907-1.86 1.422 0 2.133.953 2.133 2.858h-1.682c0-.47-.08-.807-.239-1.012-.155-.205-.406-.308-.752-.308-.515 0-.902.237-1.162.711-.255.474-.383 1.146-.383 2.017Zm10.238 3.254c-1.194 0-2.055-.242-2.584-.725-.524-.483-.786-1.255-.786-2.317v-2.81h-1.77v-1.531h1.77v-2.188h1.682v2.188h3.247v1.531h-3.247v2.673c0 .565.141.975.424 1.23.287.251.754.376 1.401.376.214 0 .444-.011.691-.034.246-.027.526-.061.84-.102l.164 1.545c-.305.054-.603.095-.895.123-.292.027-.604.041-.937.041Zm70.783 19.498v-1.538h6.973v1.538h-6.973Zm0-3.425v-1.538h6.973v1.538h-6.973Zm21.707 5.858-.096-1.599h-.157c-.059.556-.287.973-.683 1.251-.392.278-.912.417-1.559.417-.766 0-1.36-.185-1.784-.554-.419-.374-.629-.905-.629-1.593 0-.793.282-1.401.848-1.825.565-.424 1.364-.636 2.399-.636.551 0 1.03.044 1.436.13v-.143c0-.424-.167-.734-.5-.93-.332-.201-.829-.31-1.49-.328l-1.804-.048.136-1.524 1.532.02c1.266.018 2.208.278 2.823.779.615.497.923 1.224.923 2.181v2.816l1.093.151V131l-2.488.068Zm-.225-3.048a4.38 4.38 0 0 0-.705-.076 16.79 16.79 0 0 0-.69-.013c-1.076 0-1.613.316-1.613.95 0 .57.369.854 1.107.854.424 0 .775-.075 1.053-.225a1.66 1.66 0 0 0 .636-.581c.141-.237.212-.481.212-.732v-.177Zm7.996 2.98-.78-5.578h-.082l-.779 5.578h-2.187l-.616-7.246h1.627l.369 5.776h.123l.841-5.776h1.326l.841 5.776h.123l.513-5.776h1.62l-.82 7.246h-2.119Zm9.055.068-.095-1.599h-.158c-.059.556-.287.973-.683 1.251-.392.278-.912.417-1.559.417-.765 0-1.36-.185-1.784-.554-.419-.374-.629-.905-.629-1.593 0-.793.283-1.401.848-1.825.565-.424 1.365-.636 2.399-.636.552 0 1.03.044 1.436.13v-.143c0-.424-.167-.734-.499-.93-.333-.201-.83-.31-1.491-.328l-1.804-.048.137-1.524 1.531.02c1.267.018 2.208.278 2.823.779.615.497.923 1.224.923 2.181v2.816l1.094.151V131l-2.489.068Zm-.225-3.048a4.368 4.368 0 0 0-.704-.076 16.874 16.874 0 0 0-.691-.013c-1.075 0-1.613.316-1.613.95 0 .57.369.854 1.107.854.424 0 .775-.075 1.053-.225.283-.155.495-.349.636-.581.141-.237.212-.481.212-.732v-.177Zm4.168 2.98v-1.531h2.714v-4.184h-2.304v-1.531h3.985v5.715h2.181V131h-6.576Zm3.486-8.292c-.323 0-.59-.105-.8-.314a1.088 1.088 0 0 1-.314-.8c0-.324.105-.59.314-.8.21-.21.477-.315.8-.315.324 0 .59.105.8.315.21.21.314.476.314.8 0 .323-.104.59-.314.8-.21.209-.476.314-.8.314Zm9.452 8.429c-1.194 0-2.055-.242-2.584-.725-.524-.483-.786-1.255-.786-2.317v-2.81h-1.77v-1.531h1.77v-2.188h1.682v2.188h3.247v1.531h-3.247v2.673c0 .565.141.975.424 1.23.287.251.754.376 1.401.376.214 0 .444-.011.69-.034.247-.027.527-.061.841-.102l.164 1.545c-.305.054-.604.095-.895.123-.292.027-.604.041-.937.041Zm3.478 19.498v-1.538h6.973v1.538h-6.973Zm0-3.425v-1.538h6.973v1.538h-6.973Zm21.707 5.858-.096-1.599h-.157c-.059.556-.287.973-.684 1.251-.391.278-.911.417-1.558.417-.766 0-1.36-.185-1.784-.554-.42-.374-.629-.905-.629-1.593 0-.793.282-1.401.847-1.825.566-.424 1.365-.636 2.4-.636.551 0 1.03.044 1.435.13v-.143c0-.424-.166-.734-.499-.93-.332-.201-.829-.31-1.49-.328l-1.805-.048.137-1.524 1.531.02c1.267.018 2.208.278 2.824.779.615.497.923 1.224.923 2.181v2.816l1.093.151V153l-2.488.068Zm-.226-3.048a4.356 4.356 0 0 0-.704-.076 16.824 16.824 0 0 0-.69-.013c-1.076 0-1.613.316-1.613.95 0 .57.369.854 1.107.854.424 0 .775-.075 1.053-.225a1.65 1.65 0 0 0 .635-.581c.142-.237.212-.481.212-.732v-.177Zm7.997 2.98-.78-5.578h-.082l-.779 5.578h-2.188l-.615-7.246h1.627l.369 5.776h.123l.841-5.776h1.326l.841 5.776h.123l.513-5.776h1.62l-.82 7.246h-2.119Zm9.055.068-.095-1.599h-.158c-.059.556-.287.973-.683 1.251-.392.278-.912.417-1.559.417-.766 0-1.36-.185-1.784-.554-.419-.374-.629-.905-.629-1.593 0-.793.283-1.401.848-1.825.565-.424 1.365-.636 2.399-.636.552 0 1.03.044 1.436.13v-.143c0-.424-.167-.734-.499-.93-.333-.201-.83-.31-1.491-.328l-1.804-.048.136-1.524 1.532.02c1.267.018 2.208.278 2.823.779.615.497.923 1.224.923 2.181v2.816l1.093.151V153l-2.488.068Zm-.225-3.048a4.368 4.368 0 0 0-.704-.076 16.874 16.874 0 0 0-.691-.013c-1.075 0-1.613.316-1.613.95 0 .57.369.854 1.107.854.424 0 .775-.075 1.053-.225.283-.155.494-.349.636-.581.141-.237.212-.481.212-.732v-.177Zm4.168 2.98v-1.531h2.714v-4.184h-2.304v-1.531h3.985v5.715h2.181V153h-6.576Zm3.486-8.292c-.324 0-.59-.105-.8-.314a1.088 1.088 0 0 1-.314-.8c0-.324.105-.59.314-.8.21-.21.476-.315.8-.315.324 0 .59.105.8.315.209.21.314.476.314.8 0 .323-.105.59-.314.8-.21.209-.476.314-.8.314Zm9.452 8.429c-1.194 0-2.055-.242-2.584-.725-.524-.483-.786-1.255-.786-2.317v-2.81h-1.77v-1.531h1.77v-2.188h1.682v2.188h3.247v1.531h-3.247v2.673c0 .565.141.975.424 1.23.287.251.754.376 1.401.376.214 0 .444-.011.69-.034.246-.027.527-.061.841-.102l.164 1.545c-.305.054-.604.095-.895.123-.292.027-.604.041-.937.041Zm40.617 0a1.11 1.11 0 0 1-.814-.335 1.124 1.124 0 0 1-.335-.814c0-.323.112-.597.335-.82a1.11 1.11 0 0 1 .814-.335c.319 0 .59.112.813.335.223.223.335.497.335.82 0 .315-.112.586-.335.814a1.107 1.107 0 0 1-.813.335ZM96.378 193.883v1.654h1.73V197H93.13v-1.463h1.565v-4.32h-1.291v-1.463h2.7l.225 1.723h.226c.073-1.24.709-1.86 1.907-1.86 1.422 0 2.133.953 2.133 2.858h-1.682c0-.47-.08-.807-.239-1.012-.155-.205-.406-.308-.752-.308-.515 0-.902.237-1.162.711-.255.474-.383 1.146-.383 2.017Zm9.384 3.254c-1.249 0-2.213-.324-2.892-.971-.674-.652-1.011-1.586-1.011-2.803 0-1.185.287-2.105.861-2.761.579-.657 1.392-.985 2.44-.985 1.012 0 1.794.301 2.345.903.556.601.834 1.474.834 2.618 0 .328-.014.64-.041.936h-4.717c.274 1.003 1.055 1.504 2.345 1.504.319 0 .631-.016.936-.048.31-.036.625-.084.944-.143l.178 1.558c-.452.082-.864.135-1.238.158-.369.022-.697.034-.984.034Zm-2.256-4.28h3.22c0-.556-.137-.979-.41-1.271-.274-.296-.654-.444-1.142-.444-.474 0-.854.148-1.142.444-.287.296-.462.72-.526 1.271Zm11.524 4.28c-1.194 0-2.056-.242-2.584-.725-.525-.483-.787-1.255-.787-2.317v-2.81h-1.77v-1.531h1.77v-2.188h1.682v2.188h3.247v1.531h-3.247v2.673c0 .565.141.975.424 1.23.287.251.754.376 1.401.376.214 0 .445-.011.691-.034.246-.027.526-.061.84-.102l.165 1.545a10.182 10.182 0 0 1-1.832.164Zm6.047 0c-.715 0-1.271-.226-1.668-.677-.391-.456-.587-1.096-.587-1.921v-4.785h1.688v4.512c0 .414.103.736.308.963.209.224.501.335.875.335.474 0 .829-.166 1.066-.499.242-.337.362-.9.362-1.688v-3.623h1.689v5.728l.998.151V197l-2.564.068-.102-1.463h-.178c-.114.493-.337.871-.67 1.135-.328.265-.734.397-1.217.397Zm8.954-3.254v1.654h1.729V197h-4.976v-1.463h1.565v-4.32h-1.292v-1.463h2.7l.226 1.723h.225c.073-1.24.709-1.86 1.908-1.86 1.421 0 2.132.953 2.132 2.858h-1.681c0-.47-.08-.807-.24-1.012-.154-.205-.405-.308-.751-.308-.515 0-.903.237-1.163.711-.255.474-.382 1.146-.382 2.017ZM140.153 197v-4.443c0-.438-.101-.775-.301-1.012-.196-.237-.476-.356-.841-.356-1.016 0-1.524.67-1.524 2.01V197h-1.689v-7.246h1.518l.143 1.312h.192c.059-.487.23-.85.512-1.087.283-.241.707-.362 1.272-.362.766 0 1.358.233 1.777.697.42.465.629 1.122.629 1.969V197h-1.688Zm32.319 22.137c-.319 0-.59-.112-.813-.335a1.12 1.12 0 0 1-.335-.814c0-.323.111-.597.335-.82.223-.223.494-.335.813-.335.319 0 .59.112.814.335.223.223.335.497.335.82 0 .315-.112.586-.335.814a1.111 1.111 0 0 1-.814.335Zm0-5.216c-.319 0-.59-.112-.813-.335a1.127 1.127 0 0 1-.335-.82c0-.319.111-.591.335-.814.223-.223.494-.335.813-.335.319 0 .59.112.814.335.223.223.335.495.335.814 0 .319-.112.592-.335.82a1.111 1.111 0 0 1-.814.335Zm74.296 30.059.547-4.716h1.86l-.821 4.716h-1.586Zm-109.37 22 .547-4.716h1.859l-.82 4.716h-1.586Z" fill="#E22033"></path><path d="M112.664 65.137c-.715 0-1.271-.226-1.668-.677-.392-.456-.588-1.096-.588-1.92v-4.786h1.689v4.512c0 .414.102.736.308.964.209.223.501.335.875.335.473 0 .829-.167 1.066-.5.241-.337.362-.9.362-1.688v-3.623h1.689v5.728l.998.15V65l-2.564.068-.102-1.462h-.178c-.114.492-.337.87-.67 1.134-.328.265-.734.397-1.217.397Zm8.953-3.254v1.654h1.73V65h-4.977v-1.463h1.566v-4.32h-1.292v-1.463h2.7l.226 1.723h.225c.073-1.24.709-1.86 1.907-1.86 1.422 0 2.133.953 2.133 2.858h-1.681c0-.47-.08-.807-.24-1.012-.155-.205-.405-.308-.752-.308-.515 0-.902.237-1.162.711-.255.474-.383 1.146-.383 2.017Zm9.87 3.254c-.884 0-1.522-.242-1.914-.725-.388-.483-.581-1.255-.581-2.317v-5.818h-2.085v-1.53h3.766v7.28c0 .5.082.865.246 1.093.169.228.54.342 1.115.342.391 0 .888-.087 1.49-.26l.191 1.648c-.378.1-.743.173-1.094.218a8.84 8.84 0 0 1-1.134.069Zm261.203 45.326c-.743 0-1.319-.223-1.729-.67-.406-.442-.609-1.062-.609-1.859 0-.351.048-.698.144-1.039a3.97 3.97 0 0 0 .143-1.067.626.626 0 0 0-.273-.533 1.748 1.748 0 0 0-.711-.294 4.27 4.27 0 0 0-.93-.096v-1.463c.328 0 .638-.038.93-.116.292-.082.528-.2.711-.355a.727.727 0 0 0 .273-.575c0-.382-.048-.742-.143-1.08a3.726 3.726 0 0 1-.144-1.025c0-.77.203-1.363.609-1.777.41-.42.986-.63 1.729-.63a5.137 5.137 0 0 1 1.23.138l-.164 1.462a4.522 4.522 0 0 0-.41-.047 3.563 3.563 0 0 0-.362-.021c-.31 0-.547.103-.711.308-.159.205-.239.492-.239.861 0 .346.052.677.157.991.105.31.157.638.157.985 0 .464-.157.827-.471 1.086-.315.256-.755.388-1.32.397v.26c.565.009 1.005.134 1.32.376.314.241.471.569.471.984 0 .36-.052.697-.157 1.012-.105.31-.157.631-.157.964 0 .41.08.729.239.957.164.223.401.335.711.335.109 0 .23-.007.362-.021.132-.014.269-.029.41-.048l.164 1.463a3.797 3.797 0 0 1-.519.096 5.2 5.2 0 0 1-.711.041Zm-245.833 17.42v1.654h1.729V131h-4.976v-1.463h1.565v-4.32h-1.292v-1.463h2.7l.226 1.723h.226c.072-1.24.708-1.86 1.907-1.86 1.422 0 2.133.953 2.133 2.858h-1.682c0-.47-.08-.807-.239-1.012-.155-.205-.406-.308-.752-.308-.515 0-.903.237-1.162.711-.256.474-.383 1.146-.383 2.017Zm9.384 3.254c-1.249 0-2.213-.324-2.892-.971-.674-.652-1.012-1.586-1.012-2.803 0-1.185.287-2.105.862-2.761.578-.657 1.392-.985 2.44-.985 1.012 0 1.793.301 2.345.903.556.601.834 1.474.834 2.618 0 .328-.014.64-.041.936h-4.717c.273 1.003 1.055 1.504 2.345 1.504.319 0 .631-.016.936-.048.31-.036.625-.084.944-.143l.177 1.558c-.451.082-.863.135-1.237.158-.369.022-.697.034-.984.034Zm-2.256-4.28h3.22c0-.556-.137-.979-.411-1.271-.273-.296-.654-.444-1.141-.444-.474 0-.855.148-1.142.444-.287.296-.462.72-.526 1.271Zm9.514 4.28c-1.085 0-1.933-.069-2.543-.205l.198-1.586c.533.073.991.127 1.374.164.383.036.706.054.971.054.665 0 1.146-.054 1.442-.164.301-.109.451-.282.451-.519 0-.155-.043-.271-.13-.349-.086-.082-.223-.148-.41-.198l-2.085-.581c-.579-.16-1.007-.378-1.285-.656-.278-.283-.417-.679-.417-1.19 0-.788.317-1.367.95-1.736.638-.369 1.629-.554 2.974-.554.323 0 .647.012.97.034.324.023.661.057 1.012.103l-.178 1.531a24.162 24.162 0 0 0-1.045-.075 17.135 17.135 0 0 0-.8-.021c-.757 0-1.304.053-1.641.158-.337.104-.506.273-.506.506 0 .154.05.268.151.341.1.073.255.137.464.192l1.75.471c.68.174 1.181.417 1.504.732.329.314.493.743.493 1.285 0 .77-.299 1.34-.896 1.709-.592.369-1.515.554-2.768.554ZM330.9 133.98l.547-4.716h1.859l-.82 4.716H330.9Zm1.422-8.059a1.11 1.11 0 0 1-.814-.335 1.131 1.131 0 0 1-.335-.82c0-.319.112-.591.335-.814a1.11 1.11 0 0 1 .814-.335c.319 0 .59.112.813.335.223.223.335.495.335.814 0 .319-.112.592-.335.82a1.107 1.107 0 0 1-.813.335Zm-184.303 27.216c-1.285 0-2.279-.324-2.981-.971-.697-.652-1.045-1.586-1.045-2.803 0-1.185.323-2.105.97-2.761.647-.657 1.573-.985 2.776-.985.733 0 1.36.139 1.88.417.519.278.891.675 1.114 1.19l-1.251.977a2.088 2.088 0 0 0-.773-.745 2.02 2.02 0 0 0-1.025-.267c-.62 0-1.103.183-1.449.547-.347.365-.52.884-.52 1.559 0 .738.214 1.301.643 1.688.428.388 1.037.581 1.825.581.333 0 .663-.015.991-.047.333-.032.656-.076.971-.13l.178 1.545a8.028 8.028 0 0 1-1.149.164c-.392.027-.777.041-1.155.041Zm8.96-.137v-4.512c0-.424-.1-.752-.301-.984-.196-.233-.476-.349-.841-.349-1.016 0-1.524.659-1.524 1.976V153h-1.689v-10.254h1.689v4.32h.164c.059-.487.23-.85.513-1.087.282-.241.706-.362 1.271-.362.766 0 1.358.233 1.778.697.419.465.628 1.122.628 1.969V153h-1.688Zm8.475.068-.096-1.599h-.157c-.06.556-.287.973-.684 1.251-.392.278-.911.417-1.559.417-.765 0-1.36-.185-1.784-.554-.419-.374-.629-.905-.629-1.593 0-.793.283-1.401.848-1.825.565-.424 1.365-.636 2.399-.636.552 0 1.03.044 1.436.13v-.143c0-.424-.166-.734-.499-.93-.333-.201-.829-.31-1.49-.328l-1.805-.048.137-1.524 1.531.02c1.267.018 2.208.278 2.823.779.616.497.923 1.224.923 2.181v2.816l1.094.151V153l-2.488.068Zm-.226-3.048a4.368 4.368 0 0 0-.704-.076 16.874 16.874 0 0 0-.691-.013c-1.075 0-1.613.316-1.613.95 0 .57.369.854 1.108.854.423 0 .774-.075 1.052-.225.283-.155.495-.349.636-.581.141-.237.212-.481.212-.732v-.177Zm6.868-.137v1.654h1.73V153h-4.977v-1.463h1.566v-4.32h-1.292v-1.463h2.7l.225 1.723h.226c.073-1.24.709-1.86 1.907-1.86 1.422 0 2.133.953 2.133 2.858h-1.682c0-.47-.079-.807-.239-1.012-.155-.205-.406-.308-.752-.308-.515 0-.902.237-1.162.711-.255.474-.383 1.146-.383 2.017Zm10.184 3.185-.096-1.599h-.157c-.059.556-.287.973-.684 1.251-.392.278-.911.417-1.558.417-.766 0-1.361-.185-1.784-.554-.42-.374-.629-.905-.629-1.593 0-.793.282-1.401.847-1.825.565-.424 1.365-.636 2.4-.636.551 0 1.03.044 1.435.13v-.143c0-.424-.166-.734-.499-.93-.332-.201-.829-.31-1.49-.328l-1.805-.048.137-1.524 1.531.02c1.267.018 2.208.278 2.824.779.615.497.922 1.224.922 2.181v2.816l1.094.151V153l-2.488.068Zm-.226-3.048a4.368 4.368 0 0 0-.704-.076 16.858 16.858 0 0 0-.69-.013c-1.076 0-1.614.316-1.614.95 0 .57.37.854 1.108.854.424 0 .775-.075 1.053-.225a1.65 1.65 0 0 0 .635-.581c.142-.237.212-.481.212-.732v-.177Zm8.031 3.117c-1.286 0-2.279-.324-2.981-.971-.697-.652-1.046-1.586-1.046-2.803 0-1.185.324-2.105.971-2.761.647-.657 1.572-.985 2.775-.985.734 0 1.361.139 1.88.417.52.278.891.675 1.114 1.19l-1.251.977a2.085 2.085 0 0 0-.772-.745 2.023 2.023 0 0 0-1.025-.267c-.62 0-1.103.183-1.45.547-.346.365-.519.884-.519 1.559 0 .738.214 1.301.642 1.688.429.388 1.037.581 1.826.581.332 0 .663-.015.991-.047.333-.032.656-.076.971-.13l.177 1.545a7.994 7.994 0 0 1-1.148.164c-.392.027-.777.041-1.155.041Zm9.076 0c-1.194 0-2.056-.242-2.584-.725-.524-.483-.786-1.255-.786-2.317v-2.81h-1.771v-1.531h1.771v-2.188h1.681v2.188h3.247v1.531h-3.247v2.673c0 .565.142.975.424 1.23.287.251.754.376 1.402.376.214 0 .444-.011.69-.034.246-.027.526-.061.841-.102l.164 1.545a10.166 10.166 0 0 1-1.832.164Zm7.558 0c-1.248 0-2.212-.324-2.891-.971-.675-.652-1.012-1.586-1.012-2.803 0-1.185.287-2.105.861-2.761.579-.657 1.393-.985 2.441-.985 1.012 0 1.793.301 2.345.903.556.601.834 1.474.834 2.618 0 .328-.014.64-.041.936h-4.717c.273 1.003 1.055 1.504 2.344 1.504.319 0 .632-.016.937-.048.31-.036.624-.084.943-.143l.178 1.558c-.451.082-.864.135-1.237.158a16.81 16.81 0 0 1-.985.034Zm-2.255-4.28h3.219c0-.556-.136-.979-.41-1.271-.273-.296-.654-.444-1.141-.444-.474 0-.855.148-1.142.444-.287.296-.463.72-.526 1.271Zm9.698 1.026v1.654h1.729V153h-4.976v-1.463h1.565v-4.32h-1.292v-1.463h2.7l.226 1.723h.226c.072-1.24.708-1.86 1.907-1.86 1.422 0 2.133.953 2.133 2.858h-1.682c0-.47-.08-.807-.239-1.012-.155-.205-.406-.308-.752-.308-.515 0-.903.237-1.162.711-.256.474-.383 1.146-.383 2.017Zm8.228 3.254c-1.084 0-1.932-.069-2.543-.205l.199-1.586c.533.073.991.127 1.374.164.383.036.706.054.97.054.666 0 1.147-.054 1.443-.164.301-.109.451-.282.451-.519 0-.155-.043-.271-.13-.349-.087-.082-.223-.148-.41-.198l-2.085-.581c-.579-.16-1.007-.378-1.285-.656-.278-.283-.417-.679-.417-1.19 0-.788.317-1.367.95-1.736.638-.369 1.629-.554 2.974-.554.323 0 .647.012.97.034.324.023.661.057 1.012.103l-.178 1.531a24.086 24.086 0 0 0-1.046-.075 17.06 17.06 0 0 0-.799-.021c-.757 0-1.304.053-1.641.158-.337.104-.506.273-.506.506 0 .154.05.268.151.341.1.073.255.137.464.192l1.75.471c.679.174 1.181.417 1.504.732.328.314.492.743.492 1.285 0 .77-.298 1.34-.895 1.709-.592.369-1.515.554-2.769.554Zm84.316-3.254v1.654h1.73V153h-4.977v-1.463h1.566v-4.32h-1.292v-1.463h2.7l.225 1.723h.226c.073-1.24.709-1.86 1.907-1.86 1.422 0 2.133.953 2.133 2.858h-1.682c0-.47-.079-.807-.239-1.012-.155-.205-.406-.308-.752-.308-.515 0-.902.237-1.162.711-.255.474-.383 1.146-.383 2.017Zm9.384 3.254c-1.249 0-2.213-.324-2.892-.971-.674-.652-1.011-1.586-1.011-2.803 0-1.185.287-2.105.861-2.761.579-.657 1.392-.985 2.44-.985 1.012 0 1.794.301 2.345.903.556.601.834 1.474.834 2.618 0 .328-.013.64-.041.936h-4.717c.274 1.003 1.055 1.504 2.345 1.504a9 9 0 0 0 .937-.048c.31-.036.624-.084.943-.143l.178 1.558c-.451.082-.864.135-1.238.158-.369.022-.697.034-.984.034Zm-2.256-4.28h3.22c0-.556-.137-.979-.41-1.271-.274-.296-.654-.444-1.142-.444-.474 0-.854.148-1.141.444-.288.296-.463.72-.527 1.271Zm9.514 4.28c-1.085 0-1.932-.069-2.543-.205l.198-1.586c.533.073.991.127 1.374.164.383.036.707.054.971.054.665 0 1.146-.054 1.442-.164.301-.109.451-.282.451-.519 0-.155-.043-.271-.129-.349-.087-.082-.224-.148-.411-.198l-2.085-.581c-.578-.16-1.007-.378-1.285-.656-.278-.283-.417-.679-.417-1.19 0-.788.317-1.367.951-1.736.638-.369 1.629-.554 2.973-.554.324 0 .647.012.971.034.323.023.661.057 1.012.103l-.178 1.531a24.197 24.197 0 0 0-1.046-.075 17.1 17.1 0 0 0-.8-.021c-.756 0-1.303.053-1.641.158-.337.104-.505.273-.505.506 0 .154.05.268.15.341.1.073.255.137.465.192l1.75.471c.679.174 1.18.417 1.504.732.328.314.492.743.492 1.285 0 .77-.299 1.34-.896 1.709-.592.369-1.515.554-2.768.554Zm-166.226 45.326c-.742 0-1.319-.223-1.729-.67-.406-.442-.608-1.062-.608-1.859 0-.351.047-.698.143-1.039.096-.342.144-.698.144-1.067a.624.624 0 0 0-.274-.533 1.742 1.742 0 0 0-.711-.294 4.267 4.267 0 0 0-.929-.096v-1.463c.328 0 .638-.038.929-.116.292-.082.529-.2.711-.355a.725.725 0 0 0 .274-.575c0-.382-.048-.742-.144-1.08a3.725 3.725 0 0 1-.143-1.025c0-.77.202-1.363.608-1.777.41-.42.987-.629 1.729-.629a5.045 5.045 0 0 1 1.231.136l-.164 1.463a4.775 4.775 0 0 0-.41-.047 3.463 3.463 0 0 0-.363-.021c-.309 0-.546.103-.71.308-.16.205-.24.492-.24.861 0 .346.053.677.157.991.105.31.158.638.158.985 0 .464-.158.827-.472 1.086-.314.256-.754.388-1.319.397v.26c.565.009 1.005.134 1.319.376.314.241.472.569.472.984 0 .36-.053.697-.158 1.012a3.01 3.01 0 0 0-.157.964c0 .41.08.729.24.957.164.223.401.335.71.335.11 0 .231-.007.363-.021.132-.014.269-.029.41-.048l.164 1.463a3.813 3.813 0 0 1-.52.096 5.2 5.2 0 0 1-.711.041Zm-29.737 23.682v-10.391h1.552l.116 1.312h.116c.155-.966.782-1.449 1.88-1.449.925 0 1.634.326 2.126.978.497.651.745 1.59.745 2.816 0 1.208-.248 2.131-.745 2.769-.492.638-1.198.957-2.119.957-.524 0-.946-.123-1.265-.369-.319-.251-.51-.611-.574-1.08h-.143v4.457h-1.689Zm1.689-6.666c0 .721.12 1.254.362 1.6.246.346.64.52 1.182.52 1.062 0 1.593-.73 1.593-2.188 0-.729-.136-1.287-.41-1.675-.273-.387-.668-.581-1.183-.581-1.029 0-1.544.709-1.544 2.126v.198Zm9.37.404v1.654h1.729V219h-4.976v-1.463h1.565v-4.32h-1.292v-1.463h2.7l.226 1.723h.225c.073-1.24.709-1.86 1.908-1.86 1.422 0 2.132.953 2.132 2.858h-1.681c0-.47-.08-.807-.239-1.012-.155-.205-.406-.308-.752-.308-.515 0-.903.237-1.162.711-.256.474-.383 1.146-.383 2.017Zm8.789 3.254c-1.03 0-1.828-.328-2.393-.985-.565-.656-.847-1.581-.847-2.775 0-1.199.282-2.124.847-2.775.565-.657 1.363-.985 2.393-.985 1.03 0 1.827.328 2.392.985.565.651.848 1.576.848 2.775 0 1.194-.283 2.119-.848 2.775-.565.657-1.362.985-2.392.985Zm0-1.573c.478 0 .847-.189 1.107-.567.265-.383.397-.923.397-1.62 0-.702-.132-1.242-.397-1.62-.26-.378-.629-.568-1.107-.568-.479 0-.85.19-1.114.568-.26.378-.39.918-.39 1.62 0 .697.13 1.237.39 1.62.264.378.635.567 1.114.567Zm5.391 4.581v-10.391h1.552l.116 1.312h.117c.155-.966.781-1.449 1.88-1.449.925 0 1.633.326 2.125.978.497.651.746 1.59.746 2.816 0 1.208-.249 2.131-.746 2.769-.492.638-1.198.957-2.119.957-.524 0-.945-.123-1.264-.369-.319-.251-.511-.611-.575-1.08h-.143v4.457h-1.689Zm1.689-6.666c0 .721.121 1.254.362 1.6.246.346.641.52 1.183.52 1.062 0 1.593-.73 1.593-2.188 0-.729-.137-1.287-.411-1.675-.273-.387-.667-.581-1.182-.581-1.03 0-1.545.709-1.545 2.126v.198Zm9.186 3.658c-1.085 0-1.933-.069-2.543-.205l.198-1.586c.533.073.991.127 1.374.164.383.036.706.054.971.054.665 0 1.146-.054 1.442-.164.301-.109.451-.282.451-.519 0-.155-.043-.271-.13-.349-.086-.082-.223-.148-.41-.198l-2.085-.581c-.579-.16-1.007-.378-1.285-.656-.278-.283-.417-.679-.417-1.19 0-.788.317-1.367.95-1.736.638-.369 1.629-.554 2.974-.554.323 0 .647.012.97.034.324.023.661.057 1.012.103l-.178 1.531a24.162 24.162 0 0 0-1.045-.075 17.135 17.135 0 0 0-.8-.021c-.757 0-1.304.053-1.641.158-.337.104-.506.273-.506.506 0 .154.05.268.151.341.1.073.255.137.464.192l1.75.471c.68.174 1.181.417 1.504.732.329.314.493.743.493 1.285 0 .77-.299 1.34-.896 1.709-.592.369-1.515.554-2.768.554Zm27.276 1.326c-.743 0-1.319-.223-1.729-.67-.406-.442-.609-1.062-.609-1.859 0-.351.048-.698.144-1.039a3.97 3.97 0 0 0 .143-1.067.626.626 0 0 0-.273-.533 1.748 1.748 0 0 0-.711-.294 4.27 4.27 0 0 0-.93-.096v-1.463c.328 0 .638-.038.93-.116.292-.082.528-.2.711-.355a.727.727 0 0 0 .273-.575c0-.382-.048-.742-.143-1.08a3.726 3.726 0 0 1-.144-1.025c0-.77.203-1.363.609-1.777.41-.42.986-.629 1.729-.629a5.045 5.045 0 0 1 1.23.136l-.164 1.463a4.775 4.775 0 0 0-.41-.047 3.46 3.46 0 0 0-.362-.021c-.31 0-.547.103-.711.308-.159.205-.239.492-.239.861 0 .346.052.677.157.991.105.31.157.638.157.985 0 .464-.157.827-.471 1.086-.315.256-.755.388-1.32.397v.26c.565.009 1.005.134 1.32.376.314.241.471.569.471.984 0 .36-.052.697-.157 1.012-.105.31-.157.631-.157.964 0 .41.08.729.239.957.164.223.401.335.711.335.109 0 .23-.007.362-.021.132-.014.269-.029.41-.048l.164 1.463a3.797 3.797 0 0 1-.519.096 5.2 5.2 0 0 1-.711.041Zm-25.93 20.674c-1.285 0-2.278-.324-2.98-.971-.698-.652-1.046-1.586-1.046-2.803 0-1.185.323-2.105.971-2.761.647-.657 1.572-.985 2.775-.985.734 0 1.36.139 1.88.417.519.278.891.675 1.114 1.19l-1.251.977a2.085 2.085 0 0 0-.772-.745 2.024 2.024 0 0 0-1.026-.267c-.62 0-1.103.183-1.449.547-.346.365-.52.884-.52 1.559 0 .738.215 1.301.643 1.688.428.388 1.037.581 1.825.581.333 0 .663-.015.991-.047.333-.032.657-.076.971-.13l.178 1.545a8.028 8.028 0 0 1-1.149.164c-.391.027-.777.041-1.155.041Zm8.96-.137v-4.512c0-.424-.1-.752-.301-.984-.196-.233-.476-.349-.84-.349-1.017 0-1.525.659-1.525 1.976V241h-1.688v-10.254h1.688v4.32h.164c.059-.487.23-.85.513-1.087.282-.241.706-.362 1.271-.362.766 0 1.358.233 1.778.697.419.465.629 1.122.629 1.969V241h-1.689Zm8.475.068-.096-1.599h-.157c-.059.556-.287.973-.684 1.251-.392.278-.911.417-1.558.417-.766 0-1.361-.185-1.784-.554-.42-.374-.629-.905-.629-1.593 0-.793.282-1.401.847-1.825.565-.424 1.365-.636 2.4-.636.551 0 1.03.044 1.435.13v-.143c0-.424-.166-.734-.499-.93-.332-.201-.829-.31-1.49-.328l-1.805-.048.137-1.524 1.531.02c1.267.018 2.208.278 2.824.779.615.497.922 1.224.922 2.181v2.816l1.094.151V241l-2.488.068Zm-.226-3.048a4.368 4.368 0 0 0-.704-.076 16.858 16.858 0 0 0-.69-.013c-1.076 0-1.614.316-1.614.95 0 .57.37.854 1.108.854.424 0 .775-.075 1.053-.225a1.65 1.65 0 0 0 .635-.581c.142-.237.212-.481.212-.732v-.177Zm6.868-.137v1.654h1.73V241h-4.977v-1.463h1.566v-4.32h-1.292v-1.463h2.7l.226 1.723h.225c.073-1.24.709-1.86 1.907-1.86 1.422 0 2.133.953 2.133 2.858h-1.681c0-.47-.08-.807-.24-1.012-.155-.205-.405-.308-.752-.308-.515 0-.902.237-1.162.711-.255.474-.383 1.146-.383 2.017Zm10.184 3.185-.096-1.599h-.157c-.059.556-.287.973-.683 1.251-.392.278-.912.417-1.559.417-.766 0-1.36-.185-1.784-.554-.419-.374-.629-.905-.629-1.593 0-.793.282-1.401.848-1.825.565-.424 1.364-.636 2.399-.636.551 0 1.03.044 1.436.13v-.143c0-.424-.167-.734-.5-.93-.332-.201-.829-.31-1.49-.328l-1.804-.048.136-1.524 1.532.02c1.266.018 2.208.278 2.823.779.615.497.923 1.224.923 2.181v2.816l1.093.151V241l-2.488.068Zm-.225-3.048a4.38 4.38 0 0 0-.705-.076 16.79 16.79 0 0 0-.69-.013c-1.076 0-1.613.316-1.613.95 0 .57.369.854 1.107.854.424 0 .775-.075 1.053-.225a1.66 1.66 0 0 0 .636-.581c.141-.237.212-.481.212-.732v-.177Zm8.03 3.117c-1.285 0-2.279-.324-2.981-.971-.697-.652-1.046-1.586-1.046-2.803 0-1.185.324-2.105.971-2.761.647-.657 1.572-.985 2.776-.985.733 0 1.36.139 1.879.417.52.278.891.675 1.115 1.19l-1.251.977a2.088 2.088 0 0 0-.773-.745 2.02 2.02 0 0 0-1.025-.267c-.62 0-1.103.183-1.449.547-.347.365-.52.884-.52 1.559 0 .738.214 1.301.643 1.688.428.388 1.036.581 1.825.581.333 0 .663-.015.991-.047.333-.032.656-.076.971-.13l.178 1.545a8.028 8.028 0 0 1-1.149.164c-.392.027-.777.041-1.155.041Zm9.076 0c-1.194 0-2.055-.242-2.584-.725-.524-.483-.786-1.255-.786-2.317v-2.81h-1.771v-1.531h1.771v-2.188h1.682v2.188h3.247v1.531h-3.247v2.673c0 .565.141.975.423 1.23.287.251.755.376 1.402.376.214 0 .444-.011.69-.034.246-.027.527-.061.841-.102l.164 1.545c-.305.054-.604.095-.895.123-.292.027-.604.041-.937.041Zm7.559 0c-1.249 0-2.213-.324-2.892-.971-.674-.652-1.012-1.586-1.012-2.803 0-1.185.287-2.105.862-2.761.578-.657 1.392-.985 2.44-.985 1.012 0 1.793.301 2.345.903.556.601.834 1.474.834 2.618 0 .328-.014.64-.041.936h-4.717c.273 1.003 1.055 1.504 2.345 1.504.319 0 .631-.016.936-.048.31-.036.625-.084.944-.143l.177 1.558c-.451.082-.863.135-1.237.158-.369.022-.697.034-.984.034Zm-2.256-4.28h3.22c0-.556-.137-.979-.411-1.271-.273-.296-.654-.444-1.141-.444-.474 0-.855.148-1.142.444-.287.296-.462.72-.526 1.271Zm9.698 1.026v1.654h1.73V241h-4.977v-1.463h1.565v-4.32h-1.292v-1.463h2.701l.225 1.723h.226c.073-1.24.708-1.86 1.907-1.86 1.422 0 2.133.953 2.133 2.858h-1.682c0-.47-.08-.807-.239-1.012-.155-.205-.406-.308-.752-.308-.515 0-.902.237-1.162.711-.255.474-.383 1.146-.383 2.017Zm8.229 3.254c-1.085 0-1.933-.069-2.543-.205l.198-1.586c.533.073.991.127 1.374.164.383.036.706.054.971.054.665 0 1.146-.054 1.442-.164.301-.109.451-.282.451-.519 0-.155-.043-.271-.13-.349-.086-.082-.223-.148-.41-.198l-2.085-.581c-.579-.16-1.007-.378-1.285-.656-.278-.283-.417-.679-.417-1.19 0-.788.317-1.367.95-1.736.638-.369 1.629-.554 2.974-.554.323 0 .647.012.971.034.323.023.66.057 1.011.103l-.177 1.531a24.31 24.31 0 0 0-1.046-.075 17.135 17.135 0 0 0-.8-.021c-.757 0-1.304.053-1.641.158-.337.104-.506.273-.506.506 0 .154.051.268.151.341.1.073.255.137.465.192l1.75.471c.679.174 1.18.417 1.504.732.328.314.492.743.492 1.285 0 .77-.299 1.34-.896 1.709-.592.369-1.515.554-2.768.554Zm-110.273 23.326a5.142 5.142 0 0 1-1.231-.137l.164-1.463c.142.019.278.034.41.048.133.014.253.021.363.021.31 0 .544-.112.704-.335.164-.228.246-.547.246-.957 0-.333-.052-.654-.157-.964a3.179 3.179 0 0 1-.158-1.012c0-.415.158-.743.472-.984.315-.242.754-.367 1.319-.376v-.26c-.565-.009-1.004-.141-1.319-.397-.314-.259-.472-.622-.472-1.086 0-.347.053-.675.158-.985.105-.314.157-.645.157-.991 0-.369-.082-.656-.246-.861-.16-.205-.394-.308-.704-.308-.11 0-.23.007-.363.021a4.82 4.82 0 0 0-.41.047l-.164-1.463c.16-.041.335-.072.527-.095.191-.028.426-.041.704-.041.743 0 1.317.209 1.722.629.41.414.616 1.007.616 1.777 0 .346-.048.688-.144 1.025a3.936 3.936 0 0 0-.144 1.08c0 .228.092.42.274.575.182.155.419.273.711.355.296.078.606.116.93.116v1.463c-.329 0-.639.032-.93.096a1.742 1.742 0 0 0-.711.294.627.627 0 0 0-.274.533c0 .369.048.725.144 1.067.096.341.144.688.144 1.039 0 .797-.206 1.417-.616 1.859-.405.447-.979.67-1.722.67Zm-33.653 22a5.147 5.147 0 0 1-1.23-.137l.164-1.463c.141.019.278.034.41.048.132.014.253.021.362.021.31 0 .545-.112.704-.335.164-.228.246-.547.246-.957 0-.333-.052-.654-.157-.964a3.184 3.184 0 0 1-.157-1.012c0-.415.157-.743.472-.984.314-.242.754-.367 1.319-.376v-.26c-.565-.009-1.005-.141-1.32-.397-.314-.259-.471-.622-.471-1.086 0-.347.052-.675.157-.985.105-.314.157-.645.157-.991 0-.369-.082-.656-.246-.861-.16-.205-.394-.308-.704-.308-.11 0-.23.007-.362.021a4.782 4.782 0 0 0-.41.047l-.164-1.463c.16-.041.335-.072.526-.095.191-.028.426-.041.704-.041.743 0 1.317.209 1.723.629.41.414.615 1.007.615 1.777 0 .346-.048.688-.144 1.025a3.948 3.948 0 0 0-.143 1.08c0 .228.091.42.273.575.183.155.42.273.711.355.297.078.606.116.93.116v1.463a4.33 4.33 0 0 0-.93.096 1.746 1.746 0 0 0-.71.294.625.625 0 0 0-.274.533c0 .369.048.725.144 1.067.095.341.143.688.143 1.039 0 .797-.205 1.417-.615 1.859-.406.447-.98.67-1.723.67Zm8.454 1.517.547-4.716h1.86l-.821 4.716h-1.586Zm1.422-8.059c-.319 0-.59-.112-.813-.335a1.127 1.127 0 0 1-.335-.82c0-.319.111-.591.335-.814.223-.223.494-.335.813-.335.319 0 .59.112.814.335.223.223.335.495.335.814 0 .319-.112.592-.335.82a1.111 1.111 0 0 1-.814.335Zm-43.528 28.542a5.147 5.147 0 0 1-1.23-.137l.163-1.463c.142.019.278.034.41.048.133.014.253.021.363.021.31 0 .544-.112.704-.335.164-.228.246-.547.246-.957 0-.333-.053-.654-.157-.964a3.184 3.184 0 0 1-.157-1.012c0-.415.157-.743.471-.984.315-.242.754-.367 1.32-.376v-.26c-.566-.009-1.005-.141-1.32-.397-.314-.259-.471-.622-.471-1.086 0-.347.052-.675.157-.985.105-.314.157-.645.157-.991 0-.369-.082-.656-.246-.861-.16-.205-.394-.308-.704-.308-.11 0-.23.007-.363.021a4.782 4.782 0 0 0-.41.047l-.164-1.463c.16-.041.335-.072.527-.095.191-.028.426-.041.704-.041.742 0 1.317.209 1.722.629.41.414.616 1.007.616 1.777 0 .346-.048.688-.144 1.025a3.948 3.948 0 0 0-.143 1.08c0 .228.09.42.273.575.182.155.42.273.71.355.297.078.607.116.93.116v1.463a4.33 4.33 0 0 0-.93.096 1.746 1.746 0 0 0-.71.294.625.625 0 0 0-.273.533c0 .369.047.725.143 1.067.096.341.144.688.144 1.039 0 .797-.205 1.417-.616 1.859-.405.447-.98.67-1.722.67Z" fill="#fff"></path><path d="m161.796 59.668-.205-4.375h1.928l-.205 4.375h-1.518Zm3.036 0-.206-4.375h1.928l-.205 4.375h-1.517ZM173.805 65v-4.512c0-.423-.1-.752-.301-.984-.196-.232-.476-.349-.84-.349-1.017 0-1.525.659-1.525 1.976V65h-1.688V54.746h1.688v4.32h.164c.059-.487.23-.85.513-1.087.282-.241.706-.362 1.271-.362.766 0 1.358.233 1.778.698.419.464.629 1.12.629 1.968V65h-1.689Zm8.53.137c-1.194 0-2.056-.242-2.584-.725-.525-.483-.787-1.255-.787-2.317v-2.81h-1.77v-1.531h1.77v-2.188h1.682v2.188h3.247v1.531h-3.247v2.673c0 .565.141.975.424 1.23.287.251.754.377 1.401.377.214 0 .445-.012.691-.035.246-.027.526-.061.841-.102l.164 1.545a10.077 10.077 0 0 1-1.832.164Zm8.413 0c-1.194 0-2.056-.242-2.584-.725-.524-.483-.786-1.255-.786-2.317v-2.81h-1.771v-1.531h1.771v-2.188h1.681v2.188h3.247v1.531h-3.247v2.673c0 .565.141.975.424 1.23.287.251.754.377 1.401.377.215 0 .445-.012.691-.035.246-.027.526-.061.841-.102l.164 1.545a10.061 10.061 0 0 1-1.832.164Zm3.942 3.007v-10.39h1.552l.116 1.312h.116c.155-.966.782-1.449 1.88-1.449.925 0 1.634.326 2.126.978.497.651.745 1.59.745 2.816 0 1.208-.248 2.13-.745 2.769-.492.638-1.198.957-2.119.957-.524 0-.946-.123-1.265-.37-.319-.25-.51-.61-.574-1.08h-.143v4.457h-1.689Zm1.689-6.665c0 .72.12 1.254.362 1.6.246.346.64.52 1.182.52 1.062 0 1.593-.73 1.593-2.188 0-.729-.136-1.287-.41-1.675-.273-.387-.668-.58-1.183-.58-1.029 0-1.544.708-1.544 2.125v.199Zm9.185 3.658c-1.084 0-1.932-.069-2.543-.205l.198-1.586c.534.073.992.127 1.374.164.383.036.707.055.971.055.666 0 1.146-.055 1.443-.165.3-.109.451-.282.451-.52 0-.154-.044-.27-.13-.348-.087-.082-.223-.148-.41-.198l-2.085-.581c-.579-.16-1.007-.378-1.285-.656-.278-.283-.417-.68-.417-1.19 0-.788.316-1.367.95-1.736.638-.37 1.629-.554 2.973-.554.324 0 .648.012.971.034.324.023.661.057 1.012.103l-.178 1.531a22.765 22.765 0 0 0-1.046-.075c-.296-.014-.563-.02-.8-.02-.756 0-1.303.052-1.64.157-.337.105-.506.273-.506.505 0 .156.05.27.15.342.101.073.255.137.465.192l1.75.471c.679.174 1.18.417 1.504.732.328.314.492.743.492 1.285 0 .77-.298 1.34-.895 1.709-.593.37-1.516.554-2.769.554Zm9.726 0a1.11 1.11 0 0 1-.814-.335 1.124 1.124 0 0 1-.335-.814c0-.323.112-.597.335-.82a1.11 1.11 0 0 1 .814-.335c.319 0 .59.112.813.335.224.223.335.497.335.82 0 .315-.111.586-.335.814a1.106 1.106 0 0 1-.813.335Zm0-5.216a1.11 1.11 0 0 1-.814-.335 1.131 1.131 0 0 1-.335-.82c0-.32.112-.59.335-.814a1.11 1.11 0 0 1 .814-.335c.319 0 .59.112.813.335.224.224.335.495.335.814 0 .319-.111.592-.335.82a1.106 1.106 0 0 1-.813.335Zm10.008 6.378 5.373-12.305h1.709L227 66.3h-1.702Zm-6.563 0 5.373-12.305h1.709l-5.38 12.305h-1.702ZM241.11 65v-4.512c0-.423-.1-.752-.301-.984-.196-.232-.476-.349-.84-.349-1.017 0-1.525.659-1.525 1.976V65h-1.688V54.746h1.688v4.32h.164c.059-.487.23-.85.513-1.087.282-.241.706-.362 1.271-.362.766 0 1.358.233 1.778.698.419.464.629 1.12.629 1.968V65h-1.689Zm3.601 0 2.632-3.582-2.632-3.664h1.982l1.497 2.379 1.497-2.38h1.983l-2.666 3.61L251.67 65h-1.983l-1.531-2.372L246.693 65h-1.982Zm13.225 0v-4.512c0-.423-.1-.752-.3-.984-.196-.232-.477-.349-.841-.349-1.016 0-1.525.659-1.525 1.976V65h-1.688V54.746h1.688v4.32h.164c.06-.487.231-.85.513-1.087.283-.241.707-.362 1.272-.362.765 0 1.358.233 1.777.698.419.464.629 1.12.629 1.968V65h-1.689Zm3.594-4.081v-1.531h6.973v1.53h-6.973Zm13.294 4.15-.095-1.6h-.158c-.059.556-.287.973-.683 1.25-.392.279-.912.418-1.559.418-.766 0-1.36-.185-1.784-.554-.419-.374-.629-.905-.629-1.593 0-.793.283-1.401.848-1.825.565-.424 1.365-.636 2.399-.636.552 0 1.03.044 1.436.13v-.143c0-.424-.167-.734-.499-.93-.333-.2-.83-.31-1.491-.328l-1.804-.048.136-1.525 1.532.021c1.267.018 2.208.278 2.823.78.615.496.923 1.223.923 2.18v2.816l1.093.15V65l-2.488.068Zm-.225-3.05a4.375 4.375 0 0 0-.704-.075c-.219-.009-.449-.013-.691-.013-1.075 0-1.613.316-1.613.95 0 .57.369.854 1.107.854.424 0 .775-.075 1.053-.225a1.65 1.65 0 0 0 .636-.581c.141-.237.212-.481.212-.732v-.178Zm4.222 6.125v-10.39h1.552l.116 1.312h.117c.154-.966.781-1.449 1.879-1.449.926 0 1.634.326 2.126.978.497.651.745 1.59.745 2.816 0 1.208-.248 2.13-.745 2.769-.492.638-1.198.957-2.119.957-.524 0-.945-.123-1.264-.37-.319-.25-.511-.61-.575-1.08h-.143v4.457h-1.689Zm1.689-6.665c0 .72.121 1.254.362 1.6.246.346.64.52 1.183.52 1.062 0 1.593-.73 1.593-2.188 0-.729-.137-1.287-.411-1.675-.273-.387-.667-.58-1.182-.58-1.03 0-1.545.708-1.545 2.125v.199ZM287.18 65v-1.531h2.714v-4.184h-2.304v-1.531h3.985v5.715h2.181V65h-6.576Zm3.486-8.292c-.323 0-.59-.105-.8-.314a1.086 1.086 0 0 1-.314-.8c0-.324.105-.59.314-.8.21-.21.477-.314.8-.314.324 0 .59.104.8.314.21.21.314.476.314.8 0 .323-.104.59-.314.8-.21.21-.476.314-.8.314Zm8.003 8.429c-.319 0-.59-.112-.813-.335a1.12 1.12 0 0 1-.335-.814c0-.323.111-.597.335-.82.223-.223.494-.335.813-.335.319 0 .59.112.814.335.223.223.335.497.335.82 0 .315-.112.586-.335.814a1.11 1.11 0 0 1-.814.335Zm9.746-.137v-4.512c0-.423-.1-.752-.301-.984-.196-.232-.476-.349-.84-.349-1.017 0-1.525.659-1.525 1.976V65h-1.688V54.746h1.688v4.32h.164c.059-.487.23-.85.513-1.087.282-.241.706-.362 1.271-.362.766 0 1.358.233 1.778.698.419.464.629 1.12.629 1.968V65h-1.689Zm7.675.137c-1.249 0-2.213-.324-2.892-.971-.674-.652-1.011-1.586-1.011-2.803 0-1.185.287-2.105.861-2.761.579-.657 1.392-.985 2.44-.985 1.012 0 1.794.301 2.345.903.556.601.834 1.474.834 2.618 0 .328-.013.64-.041.936h-4.717c.274 1.003 1.055 1.504 2.345 1.504.319 0 .631-.016.937-.048.31-.036.624-.084.943-.143l.178 1.558c-.451.082-.864.135-1.238.158-.369.022-.697.034-.984.034Zm-2.256-4.28h3.22c0-.556-.137-.98-.41-1.271-.274-.296-.654-.444-1.142-.444-.474 0-.854.148-1.141.444-.288.296-.463.72-.527 1.271Zm9.698 1.026v1.654h1.73V65h-4.977v-1.463h1.566v-4.32h-1.292v-1.463h2.7l.226 1.723h.225c.073-1.24.709-1.86 1.907-1.86 1.422 0 2.133.953 2.133 2.858h-1.681c0-.47-.08-.807-.24-1.012-.155-.205-.405-.308-.752-.308-.515 0-.902.237-1.162.711-.255.474-.383 1.146-.383 2.017Zm8.79 3.254c-1.03 0-1.828-.328-2.393-.985-.565-.656-.848-1.581-.848-2.775 0-1.199.283-2.124.848-2.775.565-.657 1.363-.985 2.393-.985 1.03 0 1.827.328 2.392.985.565.651.848 1.576.848 2.775 0 1.194-.283 2.12-.848 2.775-.565.657-1.362.985-2.392.985Zm0-1.572c.478 0 .847-.19 1.107-.568.264-.383.396-.923.396-1.62 0-.702-.132-1.242-.396-1.62-.26-.378-.629-.567-1.107-.567-.479 0-.85.189-1.115.567-.259.378-.389.918-.389 1.62 0 .697.13 1.237.389 1.62.265.378.636.568 1.115.568ZM337.659 65V54.746h1.688v6.036h.226c.565 0 1.03-.098 1.394-.294.365-.2.652-.521.861-.964.21-.442.363-1.032.458-1.77h1.744c-.219 1.74-.748 2.985-1.586 3.732l2.05 3.514h-2.03l-1.483-2.762a4.637 4.637 0 0 1-1.067.117h-.567V65h-1.688Zm10.573.137c-.716 0-1.272-.226-1.668-.677-.392-.456-.588-1.096-.588-1.92v-4.786h1.688v4.512c0 .414.103.736.308.964.21.223.501.335.875.335.474 0 .829-.167 1.066-.5.242-.337.363-.9.363-1.688v-3.623h1.688v5.728l.998.15V65l-2.563.068-.103-1.462h-.177c-.114.492-.338.87-.67 1.134-.329.265-.734.397-1.217.397Zm10.723-.069-.095-1.6h-.157c-.06.557-.288.974-.684 1.252-.392.278-.912.417-1.559.417-.765 0-1.36-.185-1.784-.554-.419-.374-.629-.905-.629-1.593 0-.793.283-1.401.848-1.825.565-.424 1.365-.636 2.399-.636.552 0 1.03.044 1.436.13v-.143c0-.424-.166-.734-.499-.93-.333-.2-.83-.31-1.49-.328l-1.805-.048.137-1.525 1.531.021c1.267.018 2.208.278 2.823.78.615.496.923 1.223.923 2.18v2.816l1.094.15V65l-2.489.068Zm-.225-3.048a4.375 4.375 0 0 0-.704-.076c-.219-.009-.449-.013-.691-.013-1.075 0-1.613.316-1.613.95 0 .57.369.854 1.107.854.424 0 .775-.075 1.053-.225.283-.155.495-.349.636-.581.141-.237.212-.481.212-.732v-.178Zm4.223 6.124v-10.39h1.551l.117 1.312h.116c.155-.966.781-1.449 1.88-1.449.925 0 1.633.326 2.126.978.496.651.745 1.59.745 2.816 0 1.208-.249 2.13-.745 2.769-.493.638-1.199.957-2.12.957-.524 0-.945-.123-1.264-.37-.319-.25-.511-.61-.574-1.08h-.144v4.457h-1.688Zm1.688-6.665c0 .72.121 1.254.362 1.6.246.346.641.52 1.183.52 1.062 0 1.593-.73 1.593-2.188 0-.729-.137-1.287-.41-1.675-.274-.387-.668-.58-1.183-.58-1.03 0-1.545.708-1.545 2.125v.199Zm6.725 6.665v-10.39h1.551l.117 1.312h.116c.155-.966.781-1.449 1.88-1.449.925 0 1.634.326 2.126.978.496.651.745 1.59.745 2.816 0 1.208-.249 2.13-.745 2.769-.492.638-1.199.957-2.119.957-.524 0-.946-.123-1.265-.37-.319-.25-.51-.61-.574-1.08h-.144v4.457h-1.688Zm1.688-6.665c0 .72.121 1.254.362 1.6.247.346.641.52 1.183.52 1.062 0 1.593-.73 1.593-2.188 0-.729-.137-1.287-.41-1.675-.274-.387-.668-.58-1.183-.58-1.03 0-1.545.708-1.545 2.125v.199Zm9.746 3.658c-.319 0-.59-.112-.813-.335a1.124 1.124 0 0 1-.335-.814c0-.323.112-.597.335-.82.223-.223.494-.335.813-.335.319 0 .59.112.814.335.223.223.335.497.335.82 0 .315-.112.586-.335.814a1.11 1.11 0 0 1-.814.335Zm9.2 0c-1.286 0-2.279-.324-2.981-.971-.697-.652-1.046-1.586-1.046-2.803 0-1.185.324-2.105.971-2.761.647-.657 1.572-.985 2.775-.985.734 0 1.361.14 1.88.417.52.278.891.675 1.114 1.19l-1.251.977a2.082 2.082 0 0 0-.772-.745 2.025 2.025 0 0 0-1.025-.267c-.62 0-1.103.183-1.45.547-.346.365-.519.884-.519 1.559 0 .738.214 1.301.642 1.688.429.388 1.037.582 1.826.582.332 0 .663-.017.991-.048.333-.032.656-.076.971-.13l.177 1.545a7.883 7.883 0 0 1-1.148.164c-.392.027-.777.04-1.155.04Zm7.627 0c-1.03 0-1.828-.328-2.393-.985-.565-.656-.848-1.581-.848-2.775 0-1.199.283-2.124.848-2.775.565-.657 1.363-.985 2.393-.985 1.03 0 1.827.328 2.392.985.565.651.848 1.576.848 2.775 0 1.194-.283 2.12-.848 2.775-.565.657-1.362.985-2.392.985Zm0-1.572c.478 0 .847-.19 1.107-.568.264-.383.396-.923.396-1.62 0-.702-.132-1.242-.396-1.62-.26-.378-.629-.567-1.107-.567-.479 0-.85.189-1.115.567-.259.378-.389.918-.389 1.62 0 .697.13 1.237.389 1.62.265.378.636.568 1.115.568ZM409.776 65v-5.161c0-.501-.162-.752-.485-.752-.388 0-.581.294-.581.882V65h-1.32v-5.298c0-.41-.164-.615-.492-.615-.392 0-.588.294-.588.882V65h-1.675v-7.246h1.511l.096.902h.143c.078-.692.463-1.039 1.156-1.039.619 0 .993.347 1.121 1.04h.15c.032-.31.153-.561.362-.753.21-.191.495-.287.855-.287.492 0 .85.135 1.073.404.228.268.342.704.342 1.305V65h-1.668Zm3.218 1.299 5.373-12.305h1.709l-5.38 12.305h-1.702Zm13.266-1.23-.095-1.6h-.157c-.06.556-.288.973-.684 1.25-.392.279-.912.418-1.559.418-.765 0-1.36-.185-1.784-.554-.419-.374-.629-.905-.629-1.593 0-.793.283-1.401.848-1.825.565-.424 1.365-.636 2.399-.636.552 0 1.03.044 1.436.13v-.143c0-.424-.166-.734-.499-.93-.333-.2-.83-.31-1.49-.328l-1.805-.048.137-1.525 1.531.021c1.267.018 2.208.278 2.823.78.615.496.923 1.223.923 2.18v2.816l1.094.15V65l-2.489.068Zm-.225-3.05a4.375 4.375 0 0 0-.704-.075c-.219-.009-.449-.013-.691-.013-1.075 0-1.613.316-1.613.95 0 .57.369.854 1.107.854.424 0 .775-.075 1.053-.225.283-.155.495-.349.636-.581.141-.237.212-.481.212-.732v-.178Zm4.223 6.125v-10.39h1.551l.117 1.312h.116c.155-.966.781-1.449 1.88-1.449.925 0 1.633.326 2.126.978.496.651.745 1.59.745 2.816 0 1.208-.249 2.13-.745 2.769-.493.638-1.199.957-2.12.957-.524 0-.945-.123-1.264-.37-.319-.25-.511-.61-.574-1.08h-.144v4.457h-1.688Zm1.688-6.665c0 .72.121 1.254.362 1.6.246.346.641.52 1.183.52 1.062 0 1.593-.73 1.593-2.188 0-.729-.137-1.287-.41-1.675-.274-.387-.668-.58-1.183-.58-1.03 0-1.545.708-1.545 2.125v.199Zm6.67 3.521v-1.531h2.714v-4.184h-2.304v-1.531h3.986v5.715h2.18V65h-6.576Zm3.486-8.292c-.323 0-.59-.105-.799-.314a1.083 1.083 0 0 1-.315-.8c0-.324.105-.59.315-.8.209-.21.476-.314.799-.314.324 0 .591.104.8.314.21.21.315.476.315.8 0 .323-.105.59-.315.8-.209.21-.476.314-.8.314Zm4.544 9.59 5.373-12.304h1.709l-5.38 12.305h-1.702Zm12.659-1.161c-1.286 0-2.279-.324-2.981-.971-.697-.652-1.046-1.586-1.046-2.803 0-1.185.324-2.105.971-2.761.647-.657 1.572-.985 2.775-.985.734 0 1.361.14 1.88.417.52.278.891.675 1.114 1.19l-1.251.977a2.082 2.082 0 0 0-.772-.745 2.025 2.025 0 0 0-1.025-.267c-.62 0-1.103.183-1.45.547-.346.365-.519.884-.519 1.559 0 .738.214 1.301.642 1.688.429.388 1.037.582 1.826.582.332 0 .663-.017.991-.048.333-.032.656-.076.971-.13l.177 1.545a7.883 7.883 0 0 1-1.148.164c-.392.027-.777.04-1.155.04Zm8.96-.137v-4.512c0-.423-.101-.752-.301-.984-.196-.232-.476-.349-.841-.349-1.016 0-1.524.659-1.524 1.976V65h-1.689V54.746h1.689v4.32h.164c.059-.487.23-.85.512-1.087.283-.241.707-.362 1.272-.362.765 0 1.358.233 1.777.698.419.464.629 1.12.629 1.968V65h-1.688Zm8.474.068-.095-1.6h-.158c-.059.557-.287.974-.683 1.252-.392.278-.912.417-1.559.417-.766 0-1.36-.185-1.784-.554-.419-.374-.629-.905-.629-1.593 0-.793.283-1.401.848-1.825.565-.424 1.365-.636 2.399-.636.552 0 1.03.044 1.436.13v-.143c0-.424-.167-.734-.499-.93-.333-.2-.83-.31-1.491-.328l-1.804-.048.136-1.525 1.532.021c1.267.018 2.208.278 2.823.78.615.496.923 1.223.923 2.18v2.816l1.094.15V65l-2.489.068Zm-.225-3.048a4.375 4.375 0 0 0-.704-.076c-.219-.009-.449-.013-.691-.013-1.075 0-1.613.316-1.613.95 0 .57.369.854 1.107.854.424 0 .775-.075 1.053-.225a1.65 1.65 0 0 0 .636-.581c.141-.237.212-.481.212-.732v-.178Zm6.868-.137v1.654h1.729V65h-4.976v-1.463h1.565v-4.32h-1.292v-1.463h2.7l.226 1.723h.226c.072-1.24.708-1.86 1.907-1.86 1.422 0 2.133.953 2.133 2.858h-1.682c0-.47-.08-.807-.239-1.012-.155-.205-.406-.308-.752-.308-.515 0-.903.237-1.162.711-.256.474-.383 1.146-.383 2.017Zm10.183 3.185-.095-1.6h-.157c-.06.557-.288.974-.684 1.252-.392.278-.912.417-1.559.417-.765 0-1.36-.185-1.784-.554-.419-.374-.629-.905-.629-1.593 0-.793.283-1.401.848-1.825.565-.424 1.365-.636 2.399-.636.552 0 1.03.044 1.436.13v-.143c0-.424-.166-.734-.499-.93-.333-.2-.83-.31-1.49-.328l-1.805-.048.137-1.525 1.531.021c1.267.018 2.208.278 2.823.78.615.496.923 1.223.923 2.18v2.816l1.094.15V65l-2.489.068Zm-.225-3.048a4.375 4.375 0 0 0-.704-.076c-.219-.009-.449-.013-.691-.013-1.075 0-1.613.316-1.613.95 0 .57.369.854 1.107.854.424 0 .775-.075 1.053-.225.283-.155.495-.349.636-.581.141-.237.212-.481.212-.732v-.178Zm8.03 3.117c-1.285 0-2.278-.324-2.98-.971-.698-.652-1.046-1.586-1.046-2.803 0-1.185.323-2.105.971-2.761.647-.657 1.572-.985 2.775-.985.734 0 1.36.14 1.88.417.519.278.891.675 1.114 1.19l-1.251.977a2.082 2.082 0 0 0-.772-.745 2.026 2.026 0 0 0-1.026-.267c-.62 0-1.103.183-1.449.547-.346.365-.52.884-.52 1.559 0 .738.215 1.301.643 1.688.428.388 1.037.582 1.825.582.333 0 .663-.017.991-.048.333-.032.657-.076.971-.13l.178 1.545a7.917 7.917 0 0 1-1.149.164c-.391.027-.777.04-1.155.04Zm9.076 0c-1.194 0-2.055-.242-2.584-.725-.524-.483-.786-1.255-.786-2.317v-2.81h-1.77v-1.531h1.77v-2.188h1.682v2.188h3.247v1.531h-3.247v2.673c0 .565.141.975.424 1.23.287.251.754.377 1.401.377.214 0 .444-.012.691-.035.246-.027.526-.061.84-.102l.164 1.545a10.083 10.083 0 0 1-1.832.164Zm7.559 0c-1.249 0-2.213-.324-2.892-.971-.674-.652-1.011-1.586-1.011-2.803 0-1.185.287-2.105.861-2.761.579-.657 1.392-.985 2.44-.985 1.012 0 1.794.301 2.345.903.556.601.834 1.474.834 2.618 0 .328-.013.64-.041.936h-4.717c.274 1.003 1.055 1.504 2.345 1.504.319 0 .631-.016.937-.048.31-.036.624-.084.943-.143l.178 1.558c-.451.082-.864.135-1.238.158-.369.022-.697.034-.984.034Zm-2.256-4.28h3.22c0-.556-.137-.98-.41-1.271-.274-.296-.654-.444-1.142-.444-.474 0-.854.148-1.141.444-.288.296-.463.72-.527 1.271Zm9.698 1.026v1.654h1.73V65H522.2v-1.463h1.566v-4.32h-1.292v-1.463h2.7l.226 1.723h.225c.073-1.24.709-1.86 1.907-1.86 1.422 0 2.133.953 2.133 2.858h-1.681c0-.47-.08-.807-.24-1.012-.155-.205-.405-.308-.752-.308-.515 0-.902.237-1.162.711-.255.474-.383 1.146-.383 2.017Zm8.229 3.254c-1.085 0-1.932-.069-2.543-.205l.198-1.586c.534.073.992.127 1.374.164.383.036.707.055.971.055.665 0 1.146-.055 1.442-.165.301-.109.452-.282.452-.52 0-.154-.044-.27-.13-.348-.087-.082-.224-.148-.41-.198l-2.085-.581c-.579-.16-1.008-.378-1.286-.656-.278-.283-.417-.68-.417-1.19 0-.788.317-1.367.951-1.736.638-.37 1.629-.554 2.973-.554.324 0 .647.012.971.034.324.023.661.057 1.012.103l-.178 1.531a22.865 22.865 0 0 0-1.046-.075c-.296-.014-.563-.02-.8-.02-.756 0-1.303.052-1.64.157-.338.105-.506.273-.506.505 0 .156.05.27.15.342.1.073.255.137.465.192l1.75.471c.679.174 1.18.417 1.504.732.328.314.492.743.492 1.285 0 .77-.298 1.34-.895 1.709-.593.37-1.516.554-2.769.554Zm6.711-5.469-.205-4.375h1.928l-.205 4.375h-1.518Zm3.035 0-.205-4.375h1.928l-.205 4.375h-1.518Zm-174.973 50.699c-1.532 0-2.719-.544-3.562-1.634-.843-1.093-1.265-2.636-1.265-4.628 0-1.964.422-3.484 1.265-4.56.843-1.08 2.03-1.62 3.562-1.62h.314v1.525h-.26c-1.016 0-1.8.408-2.351 1.224-.547.811-.821 1.955-.821 3.431 0 1.504.274 2.671.821 3.5.551.825 1.335 1.238 2.351 1.238h.26v1.524h-.314Zm3.149 0v-1.524h.253c1.021 0 1.805-.413 2.352-1.238.546-.829.82-1.996.82-3.5 0-1.476-.274-2.62-.82-3.431-.547-.816-1.331-1.224-2.352-1.224h-.253v-1.524h.308c1.536 0 2.725.54 3.568 1.62.843 1.075 1.265 2.595 1.265 4.559 0 1.992-.422 3.535-1.265 4.628-.843 1.09-2.032 1.634-3.568 1.634h-.308Z" fill="#D8B641"></path><path d="m549.641 67.98.547-4.716h1.859l-.82 4.717h-1.586Zm1.422-8.06a1.11 1.11 0 0 1-.814-.334 1.131 1.131 0 0 1-.335-.82c0-.32.112-.59.335-.814a1.11 1.11 0 0 1 .814-.335c.319 0 .59.112.813.335.224.224.335.495.335.814 0 .319-.111.592-.335.82a1.106 1.106 0 0 1-.813.335Zm-253.31 71.217c-.715 0-1.271-.226-1.668-.677-.392-.456-.588-1.096-.588-1.921v-4.785h1.689v4.512c0 .414.102.736.307.963.21.224.502.335.875.335.474 0 .83-.166 1.067-.499.241-.337.362-.9.362-1.688v-3.623h1.688v5.728l.999.151V131l-2.564.068-.102-1.463h-.178c-.114.493-.337.871-.67 1.135-.328.265-.734.397-1.217.397Zm8.953-3.254v1.654h1.73V131h-4.977v-1.463h1.566v-4.32h-1.292v-1.463h2.7l.225 1.723h.226c.073-1.24.709-1.86 1.907-1.86 1.422 0 2.133.953 2.133 2.858h-1.682c0-.47-.079-.807-.239-1.012-.155-.205-.406-.308-.752-.308-.515 0-.902.237-1.162.711-.255.474-.383 1.146-.383 2.017Zm9.869 3.254c-.884 0-1.522-.242-1.914-.725-.387-.483-.581-1.255-.581-2.317v-5.818h-2.085v-1.531h3.767v7.28c0 .502.082.866.246 1.094.169.228.54.342 1.114.342.392 0 .889-.087 1.491-.26l.191 1.648c-.378.1-.743.173-1.094.218a8.75 8.75 0 0 1-1.135.069Zm73.217 24.843.546-4.716h1.86l-.82 4.716h-1.586Zm1.421-8.059c-.319 0-.59-.112-.813-.335a1.131 1.131 0 0 1-.335-.82c0-.319.112-.591.335-.814.223-.223.494-.335.813-.335.319 0 .591.112.814.335.223.223.335.495.335.814 0 .319-.112.592-.335.82a1.11 1.11 0 0 1-.814.335Z" fill="#F4F4F4"></path><path d="M171.002 109v-4.279h-2.235v-1.463h2.235v-.889c0-2.506 1.183-3.76 3.548-3.76.547 0 1.071.046 1.573.137l-.164 1.531a10.782 10.782 0 0 0-1.45-.095c-1.216 0-1.825.706-1.825 2.119v.957h2.919v1.463h-2.919V109h-1.682Zm8.967.137c-.715 0-1.271-.226-1.668-.677-.392-.456-.588-1.096-.588-1.921v-4.785h1.689v4.512c0 .414.102.736.308.963.209.224.501.335.875.335.473 0 .829-.166 1.066-.499.241-.337.362-.9.362-1.688v-3.623h1.689v5.728l.998.151V109l-2.564.068-.102-1.463h-.178c-.114.493-.337.871-.67 1.135-.328.265-.734.397-1.217.397Zm10.662-.137v-4.443c0-.438-.1-.775-.3-1.012-.196-.237-.477-.356-.841-.356-1.016 0-1.525.67-1.525 2.01V109h-1.688v-7.246h1.518l.143 1.312h.191c.06-.487.231-.85.513-1.087.283-.241.707-.362 1.272-.362.765 0 1.358.233 1.777.697.419.465.629 1.122.629 1.969V109h-1.689Zm7.867.137c-1.285 0-2.279-.324-2.981-.971-.697-.652-1.046-1.586-1.046-2.803 0-1.185.324-2.105.971-2.761.647-.657 1.572-.985 2.775-.985.734 0 1.361.139 1.88.417.52.278.891.675 1.115 1.19l-1.251.977a2.088 2.088 0 0 0-.773-.745 2.023 2.023 0 0 0-1.025-.267c-.62 0-1.103.183-1.449.547-.347.365-.52.884-.52 1.559 0 .738.214 1.301.643 1.688.428.388 1.036.581 1.825.581.332 0 .663-.015.991-.047.333-.032.656-.076.971-.13l.177 1.545a7.994 7.994 0 0 1-1.148.164c-.392.027-.777.041-1.155.041Zm9.076 0c-1.194 0-2.055-.242-2.584-.725-.524-.483-.786-1.255-.786-2.317v-2.81h-1.771v-1.531h1.771v-2.188h1.681v2.188h3.248v1.531h-3.248v2.673c0 .565.142.975.424 1.23.287.251.754.376 1.402.376.214 0 .444-.011.69-.034.246-.027.526-.061.841-.102l.164 1.545a10.15 10.15 0 0 1-1.832.164Zm3.888-.137v-1.531h2.714v-4.184h-2.304v-1.531h3.985v5.715h2.181V109h-6.576Zm3.486-8.292c-.324 0-.59-.105-.8-.314a1.087 1.087 0 0 1-.314-.8c0-.324.105-.59.314-.8.21-.21.476-.314.8-.314.324 0 .59.104.8.314.209.21.314.476.314.8 0 .323-.105.59-.314.8-.21.209-.476.314-.8.314Zm8.003 8.429c-1.03 0-1.828-.328-2.393-.985-.565-.656-.847-1.581-.847-2.775 0-1.199.282-2.124.847-2.775.565-.657 1.363-.985 2.393-.985 1.03 0 1.827.328 2.393.985.565.651.847 1.576.847 2.775 0 1.194-.282 2.119-.847 2.775-.566.657-1.363.985-2.393.985Zm0-1.573c.478 0 .848-.189 1.107-.567.265-.383.397-.923.397-1.62 0-.702-.132-1.242-.397-1.62-.259-.378-.629-.568-1.107-.568-.479 0-.85.19-1.114.568-.26.378-.39.918-.39 1.62 0 .697.13 1.237.39 1.62.264.378.635.567 1.114.567Zm9.746 1.436v-4.443c0-.438-.1-.775-.301-1.012-.196-.237-.476-.356-.841-.356-1.016 0-1.524.67-1.524 2.01V109h-1.688v-7.246h1.517l.144 1.312h.191c.059-.487.23-.85.513-1.087.282-.241.706-.362 1.271-.362.766 0 1.358.233 1.778.697.419.465.629 1.122.629 1.969V109h-1.689Z" fill="#22BE66"></path><path d="m245.333 112.268-.068-1.497 2.324-.069c.674-.023 1.164-.212 1.469-.567.306-.351.461-.871.465-1.559v-.888h-.143c-.059.469-.249.829-.568 1.08-.319.246-.742.369-1.271.369-.921 0-1.629-.319-2.126-.957-.492-.638-.738-1.561-.738-2.769 0-1.226.248-2.165.745-2.816.496-.652 1.205-.978 2.126-.978 1.098 0 1.725.483 1.88 1.449h.116l.116-1.312h1.552v6.603c0 1.29-.301 2.24-.903 2.851-.597.615-1.549.946-2.857.991l-2.119.069Zm4.19-6.987c0-1.417-.515-2.126-1.545-2.126-.515 0-.909.194-1.182.581-.274.388-.41.946-.41 1.675 0 1.458.531 2.188 1.592 2.188.543 0 .935-.174 1.176-.52.246-.346.369-.879.369-1.6v-.198Zm7.675 3.856c-1.249 0-2.212-.324-2.891-.971-.675-.652-1.012-1.586-1.012-2.803 0-1.185.287-2.105.861-2.761.579-.657 1.392-.985 2.441-.985 1.011 0 1.793.301 2.344.903.556.601.834 1.474.834 2.618 0 .328-.013.64-.041.936h-4.716c.273 1.003 1.055 1.504 2.344 1.504a9 9 0 0 0 .937-.048c.31-.036.624-.084.943-.143l.178 1.558c-.451.082-.864.135-1.237.158-.37.022-.698.034-.985.034Zm-2.256-4.28h3.22c0-.556-.137-.979-.41-1.271-.274-.296-.654-.444-1.142-.444-.474 0-.854.148-1.141.444-.287.296-.463.72-.527 1.271Zm11.524 4.28c-1.194 0-2.056-.242-2.584-.725-.524-.483-.786-1.255-.786-2.317v-2.81h-1.771v-1.531h1.771v-2.188h1.681v2.188h3.247v1.531h-3.247v2.673c0 .565.142.975.424 1.23.287.251.754.376 1.401.376.215 0 .445-.011.691-.034.246-.027.526-.061.841-.102l.164 1.545a10.166 10.166 0 0 1-1.832.164Zm6.629 0c-1.13 0-2.115-.178-2.953-.533l.218-1.662c1.012.438 1.96.657 2.844.657 1.108 0 1.661-.381 1.661-1.142 0-.488-.278-.859-.834-1.114l-1.51-.718c-.675-.324-1.197-.718-1.566-1.183a2.547 2.547 0 0 1-.554-1.62c0-.847.269-1.504.807-1.969.542-.464 1.308-.697 2.297-.697 1.235 0 2.283.408 3.144 1.224l-1.128 1.244c-.701-.624-1.371-.936-2.009-.936-.429 0-.761.097-.998.293-.237.192-.356.472-.356.841 0 .255.08.481.239.677.165.191.399.365.705.52l1.36.676c.697.347 1.23.748 1.6 1.203.373.452.56.973.56 1.566 0 .866-.301 1.529-.902 1.989-.597.456-1.472.684-2.625.684Zm10.197 0c-1.194 0-2.055-.242-2.584-.725-.524-.483-.786-1.255-.786-2.317v-2.81h-1.771v-1.531h1.771v-2.188h1.682v2.188h3.247v1.531h-3.247v2.673c0 .565.141.975.423 1.23.287.251.755.376 1.402.376.214 0 .444-.011.69-.034.246-.027.527-.061.841-.102l.164 1.545c-.305.054-.604.095-.895.123-.292.027-.604.041-.937.041Zm8.358-.069-.095-1.599h-.157c-.06.556-.288.973-.684 1.251-.392.278-.912.417-1.559.417-.765 0-1.36-.185-1.784-.554-.419-.374-.629-.905-.629-1.593 0-.793.283-1.401.848-1.825.565-.424 1.365-.636 2.399-.636.552 0 1.03.044 1.436.13v-.143c0-.424-.166-.734-.499-.93-.333-.201-.83-.31-1.49-.328l-1.805-.048.137-1.524 1.531.02c1.267.018 2.208.278 2.823.779.615.497.923 1.224.923 2.181v2.816l1.094.151V109l-2.489.068Zm-.225-3.048a4.368 4.368 0 0 0-.704-.076 16.874 16.874 0 0 0-.691-.013c-1.075 0-1.613.316-1.613.95 0 .57.369.854 1.107.854.424 0 .775-.075 1.053-.225.283-.155.495-.349.636-.581.141-.237.212-.481.212-.732v-.177Zm8.693 3.117c-1.194 0-2.055-.242-2.584-.725-.524-.483-.786-1.255-.786-2.317v-2.81h-1.77v-1.531h1.77v-2.188h1.682v2.188h3.247v1.531h-3.247v2.673c0 .565.141.975.424 1.23.287.251.754.376 1.401.376.214 0 .444-.011.69-.034.247-.027.527-.061.841-.102l.164 1.545c-.305.054-.604.095-.895.123-.292.027-.604.041-.937.041Zm3.888-.137v-1.531h2.714v-4.184h-2.304v-1.531h3.986v5.715h2.18V109h-6.576Zm3.486-8.292c-.323 0-.59-.105-.799-.314a1.084 1.084 0 0 1-.315-.8c0-.324.105-.59.315-.8.209-.21.476-.314.799-.314.324 0 .591.104.8.314.21.21.315.476.315.8 0 .323-.105.59-.315.8a1.084 1.084 0 0 1-.8.314Zm8.789 8.429c-1.285 0-2.278-.324-2.98-.971-.697-.652-1.046-1.586-1.046-2.803 0-1.185.324-2.105.971-2.761.647-.657 1.572-.985 2.775-.985.734 0 1.361.139 1.88.417.52.278.891.675 1.114 1.19l-1.251.977a2.085 2.085 0 0 0-.772-.745 2.024 2.024 0 0 0-1.026-.267c-.619 0-1.102.183-1.449.547-.346.365-.519.884-.519 1.559 0 .738.214 1.301.642 1.688.429.388 1.037.581 1.826.581.332 0 .663-.015.991-.047.332-.032.656-.076.97-.13l.178 1.545a8.015 8.015 0 0 1-1.148.164 16.82 16.82 0 0 1-1.156.041Zm4.551-.137v-9.707h2.926c1.217 0 2.149.28 2.796.841.652.56.977 1.365.977 2.413 0 1.153-.325 2.039-.977 2.659-.647.615-1.579.923-2.796.923h-1.278V109h-1.648Zm1.648-4.389h1.278c.656 0 1.158-.173 1.504-.519.351-.347.526-.839.526-1.477 0-.583-.175-1.03-.526-1.34-.346-.31-.848-.464-1.504-.464h-1.278v3.8Zm9.466 1.272v1.654h1.729V109h-4.976v-1.463h1.565v-4.32h-1.292v-1.463h2.7l.226 1.723h.225c.073-1.24.709-1.86 1.908-1.86 1.421 0 2.132.953 2.132 2.858h-1.681c0-.47-.08-.807-.24-1.012-.154-.205-.405-.308-.751-.308-.515 0-.903.237-1.163.711-.255.474-.382 1.146-.382 2.017Zm8.789 3.254c-1.03 0-1.828-.328-2.393-.985-.565-.656-.848-1.581-.848-2.775 0-1.199.283-2.124.848-2.775.565-.657 1.363-.985 2.393-.985 1.03 0 1.827.328 2.392.985.565.651.848 1.576.848 2.775 0 1.194-.283 2.119-.848 2.775-.565.657-1.362.985-2.392.985Zm0-1.573c.478 0 .847-.189 1.107-.567.264-.383.397-.923.397-1.62 0-.702-.133-1.242-.397-1.62-.26-.378-.629-.568-1.107-.568-.479 0-.85.19-1.115.568-.259.378-.389.918-.389 1.62 0 .697.13 1.237.389 1.62.265.378.636.567 1.115.567Zm5.391 4.581v-10.391h1.552l.116 1.312h.117c.154-.966.781-1.449 1.879-1.449.926 0 1.634.326 2.126.978.497.651.745 1.59.745 2.816 0 1.208-.248 2.131-.745 2.769-.492.638-1.198.957-2.119.957-.524 0-.945-.123-1.264-.369-.319-.251-.511-.611-.575-1.08h-.143v4.457h-1.689Zm1.689-6.666c0 .721.121 1.254.362 1.6.246.346.64.52 1.183.52 1.062 0 1.593-.73 1.593-2.188 0-.729-.137-1.287-.411-1.675-.273-.387-.667-.581-1.182-.581-1.03 0-1.545.709-1.545 2.126v.198Zm9.185 3.658c-1.084 0-1.932-.069-2.543-.205l.199-1.586c.533.073.991.127 1.374.164.383.036.706.054.97.054.666 0 1.147-.054 1.443-.164.301-.109.451-.282.451-.519 0-.155-.043-.271-.13-.349-.087-.082-.223-.148-.41-.198l-2.085-.581c-.579-.16-1.007-.378-1.285-.656-.278-.283-.417-.679-.417-1.19 0-.788.317-1.367.95-1.736.638-.369 1.629-.554 2.974-.554.323 0 .647.012.97.034.324.023.661.057 1.012.103l-.178 1.531a24.086 24.086 0 0 0-1.046-.075 17.06 17.06 0 0 0-.799-.021c-.757 0-1.304.053-1.641.158-.337.104-.506.273-.506.506 0 .154.05.268.151.341.1.073.255.137.464.192l1.75.471c.679.174 1.181.417 1.504.732.328.314.492.743.492 1.285 0 .77-.298 1.34-.895 1.709-.592.369-1.515.554-2.769.554ZM246.721 131v-4.279h-2.236v-1.463h2.236v-.889c0-2.506 1.182-3.76 3.547-3.76.547 0 1.071.046 1.573.137l-.164 1.531a10.814 10.814 0 0 0-1.45-.095c-1.216 0-1.825.706-1.825 2.119v.957h2.919v1.463h-2.919V131h-1.681Zm10.477.137c-1.249 0-2.212-.324-2.891-.971-.675-.652-1.012-1.586-1.012-2.803 0-1.185.287-2.105.861-2.761.579-.657 1.392-.985 2.441-.985 1.011 0 1.793.301 2.344.903.556.601.834 1.474.834 2.618 0 .328-.013.64-.041.936h-4.716c.273 1.003 1.055 1.504 2.344 1.504a9 9 0 0 0 .937-.048c.31-.036.624-.084.943-.143l.178 1.558c-.451.082-.864.135-1.237.158-.37.022-.698.034-.985.034Zm-2.256-4.28h3.22c0-.556-.137-.979-.41-1.271-.274-.296-.654-.444-1.142-.444-.474 0-.854.148-1.141.444-.287.296-.463.72-.527 1.271Zm11.524 4.28c-1.194 0-2.056-.242-2.584-.725-.524-.483-.786-1.255-.786-2.317v-2.81h-1.771v-1.531h1.771v-2.188h1.681v2.188h3.247v1.531h-3.247v2.673c0 .565.142.975.424 1.23.287.251.754.376 1.401.376.215 0 .445-.011.691-.034.246-.027.526-.061.841-.102l.164 1.545a10.166 10.166 0 0 1-1.832.164Zm7.75 0c-1.285 0-2.279-.324-2.981-.971-.697-.652-1.046-1.586-1.046-2.803 0-1.185.324-2.105.971-2.761.647-.657 1.572-.985 2.776-.985.733 0 1.36.139 1.879.417.52.278.891.675 1.115 1.19l-1.251.977a2.088 2.088 0 0 0-.773-.745 2.02 2.02 0 0 0-1.025-.267c-.62 0-1.103.183-1.449.547-.347.365-.52.884-.52 1.559 0 .738.214 1.301.643 1.688.428.388 1.036.581 1.825.581.333 0 .663-.015.991-.047.333-.032.656-.076.971-.13l.178 1.545a8.028 8.028 0 0 1-1.149.164c-.392.027-.777.041-1.155.041Zm8.96-.137v-4.512c0-.424-.1-.752-.301-.984-.196-.233-.476-.349-.841-.349-1.016 0-1.524.659-1.524 1.976V131h-1.689v-10.254h1.689v4.32h.164c.059-.487.23-.85.513-1.087.282-.241.706-.362 1.271-.362.766 0 1.358.233 1.777.697.42.465.629 1.122.629 1.969V131h-1.688Zm54.688 25.281-.069-1.579 1.367-.102c.675-.051 1.163-.237 1.463-.561.306-.319.458-.807.458-1.463v-5.291h-2.645v-1.531h4.334v6.603c0 1.29-.299 2.229-.896 2.817-.592.592-1.542.934-2.85 1.025l-1.162.082Zm3.93-11.573c-.319 0-.585-.105-.8-.314a1.088 1.088 0 0 1-.314-.8c0-.324.105-.59.314-.8.215-.21.481-.315.8-.315.324 0 .59.105.8.315.21.21.315.476.315.8 0 .323-.105.59-.315.8-.21.209-.476.314-.8.314Zm6.793 8.429c-1.084 0-1.932-.069-2.543-.205l.199-1.586c.533.073.991.127 1.374.164.382.036.706.054.97.054.666 0 1.146-.054 1.443-.164.3-.109.451-.282.451-.519 0-.155-.043-.271-.13-.349-.087-.082-.223-.148-.41-.198l-2.085-.581c-.579-.16-1.007-.378-1.285-.656-.278-.283-.417-.679-.417-1.19 0-.788.316-1.367.95-1.736.638-.369 1.629-.554 2.974-.554.323 0 .647.012.97.034.324.023.661.057 1.012.103l-.178 1.531a24.086 24.086 0 0 0-1.046-.075 17.1 17.1 0 0 0-.8-.021c-.756 0-1.303.053-1.64.158-.337.104-.506.273-.506.506 0 .154.05.268.15.341.101.073.256.137.465.192l1.75.471c.679.174 1.181.417 1.504.732.328.314.492.743.492 1.285 0 .77-.298 1.34-.895 1.709-.593.369-1.515.554-2.769.554Zm8.974 0c-1.03 0-1.828-.328-2.393-.985-.565-.656-.847-1.581-.847-2.775 0-1.199.282-2.124.847-2.775.565-.657 1.363-.985 2.393-.985 1.03 0 1.827.328 2.393.985.565.651.847 1.576.847 2.775 0 1.194-.282 2.119-.847 2.775-.566.657-1.363.985-2.393.985Zm0-1.573c.478 0 .848-.189 1.107-.567.265-.383.397-.923.397-1.62 0-.702-.132-1.242-.397-1.62-.259-.378-.629-.568-1.107-.568-.479 0-.85.19-1.114.568-.26.378-.39.918-.39 1.62 0 .697.13 1.237.39 1.62.264.378.635.567 1.114.567Zm9.746 1.436v-4.443c0-.438-.1-.775-.301-1.012-.196-.237-.476-.356-.841-.356-1.016 0-1.524.67-1.524 2.01V153h-1.688v-7.246h1.517l.144 1.312h.191c.059-.487.23-.85.513-1.087.282-.241.706-.362 1.271-.362.766 0 1.358.233 1.778.697.419.465.629 1.122.629 1.969V153h-1.689Z" fill="#91DD2D"></path><path d="M292.731 132.367c-1.532 0-2.719-.544-3.562-1.634-.843-1.093-1.265-2.636-1.265-4.628 0-1.964.422-3.484 1.265-4.559.843-1.08 2.03-1.62 3.562-1.62h.314v1.524h-.26c-1.016 0-1.8.408-2.351 1.224-.547.811-.821 1.955-.821 3.431 0 1.504.274 2.671.821 3.5.551.825 1.335 1.238 2.351 1.238h.26v1.524h-.314Zm28.388 0v-1.524h.253c1.021 0 1.805-.413 2.352-1.238.547-.829.82-1.996.82-3.5 0-1.476-.273-2.62-.82-3.431-.547-.816-1.331-1.224-2.352-1.224h-.253v-1.524h.308c1.536 0 2.725.54 3.568 1.62.843 1.075 1.265 2.595 1.265 4.559 0 1.992-.422 3.535-1.265 4.628-.843 1.09-2.032 1.634-3.568 1.634h-.308Zm55.743 22c-1.531 0-2.719-.544-3.562-1.634-.843-1.093-1.264-2.636-1.264-4.628 0-1.964.421-3.484 1.264-4.559.843-1.08 2.031-1.62 3.562-1.62h.314v1.524h-.26c-1.016 0-1.8.408-2.351 1.224-.547.811-.82 1.955-.82 3.431 0 1.504.273 2.671.82 3.5.551.825 1.335 1.238 2.351 1.238h.26v1.524h-.314Zm3.149 0v-1.524h.253c1.021 0 1.805-.413 2.352-1.238.547-.829.82-1.996.82-3.5 0-1.476-.273-2.62-.82-3.431-.547-.816-1.331-1.224-2.352-1.224h-.253v-1.524h.308c1.536 0 2.725.54 3.568 1.62.843 1.075 1.265 2.595 1.265 4.559 0 1.992-.422 3.535-1.265 4.628-.843 1.09-2.032 1.634-3.568 1.634h-.308Z" fill="#AD4A87"></path><path d="M29.08 64v-1.206h2.259v-6.5l-2.133.736v-1.282l2.133-.762h1.32v7.808h2.019V64h-5.599Zm-.115 22v-1.447c1.392-.77 2.431-1.57 3.116-2.4.69-.833 1.035-1.692 1.035-2.577 0-1.032-.512-1.549-1.536-1.549-.343 0-.7.1-1.073.299a3.095 3.095 0 0 0-.958.793l-.876-.87c.292-.418.707-.755 1.244-1.009.537-.254 1.1-.38 1.688-.38 1.896 0 2.844.905 2.844 2.716 0 .91-.29 1.784-.87 2.622-.575.833-1.453 1.635-2.634 2.406v.19h3.885V86h-5.865Zm2.298 22.127c-.466 0-.893-.028-1.283-.083a6.7 6.7 0 0 1-1.028-.222l.159-1.212c.258.072.548.148.87.228.325.081.736.121 1.23.121.661 0 1.173-.131 1.537-.394.364-.262.546-.63.546-1.104 0-.508-.233-.899-.698-1.174-.466-.275-1.126-.413-1.98-.413h-.204l-.152-.825c.998-.136 1.722-.362 2.17-.679.45-.322.673-.713.673-1.175 0-.368-.12-.653-.361-.857-.237-.207-.578-.311-1.022-.311a2.55 2.55 0 0 0-1.029.242c-.36.16-.7.402-1.022.723l-.875-.869c.389-.44.84-.76 1.351-.959a4.61 4.61 0 0 1 1.714-.305c.821 0 1.456.176 1.905.527.448.347.672.844.672 1.492 0 .542-.173 1.013-.52 1.415-.347.398-.8.671-1.358.819v.134c.622.11 1.121.366 1.498.768.38.397.571.922.571 1.574 0 .804-.294 1.428-.882 1.872-.584.445-1.412.667-2.482.667Zm-2.793 19.854 1.27-6.487h1.37l-1.047 5.307h2.875v-5.815h1.32v5.815h.851v1.18h-.85V130h-1.32v-2.019h-4.47Zm3.428 24.146c-.974 0-1.727-.231-2.26-.692-.534-.465-.8-1.119-.8-1.961h1.358c0 .469.148.835.445 1.098.296.258.719.387 1.27.387.54 0 .96-.163 1.256-.489.296-.326.444-.785.444-1.377 0-.58-.16-1.029-.482-1.346-.322-.322-.779-.482-1.371-.482-.593 0-1.147.139-1.663.419h-.711l.127-4.698h4.862v1.181h-3.542l-.07 2.184c.241-.089.48-.149.718-.178.24-.034.482-.051.723-.051.872 0 1.547.258 2.025.774.478.517.717 1.249.717 2.197 0 .965-.266 1.712-.8 2.24-.528.529-1.277.794-2.246.794Zm-.039 22c-1.045 0-1.815-.26-2.31-.781-.491-.52-.736-1.331-.736-2.431v-.559c0-1.722.435-3.032 1.307-3.929.876-.897 2.21-1.39 4-1.479l.126 1.206c-2.679.115-4.02 1.316-4.024 3.606h.114c.127-.47.379-.832.755-1.086.381-.258.845-.387 1.39-.387.788 0 1.395.243 1.822.73.428.487.641 1.174.641 2.063 0 .956-.273 1.703-.819 2.241-.541.537-1.297.806-2.266.806Zm.045-1.168c.537 0 .956-.165 1.257-.495.3-.334.45-.796.45-1.384 0-.52-.14-.92-.419-1.2-.275-.283-.67-.425-1.187-.425-.588 0-1.04.152-1.358.457-.317.305-.476.736-.476 1.295 0 .55.152.98.457 1.289.305.309.73.463 1.276.463ZM30.774 196l2.685-7.808h-3.39v1.955h-1.358v-3.161h6.614L32.227 196h-1.453Zm1.035 22.127c-.978 0-1.735-.226-2.273-.679-.533-.457-.8-1.098-.8-1.924 0-.605.174-1.102.52-1.491.352-.39.851-.65 1.499-.781v-.095c-.567-.127-1.003-.362-1.308-.705-.304-.343-.457-.778-.457-1.307 0-.724.246-1.285.737-1.683.495-.402 1.189-.603 2.082-.603.897 0 1.59.201 2.082.603.49.398.736.959.736 1.683 0 .524-.152.958-.457 1.301-.3.343-.732.58-1.295.711v.095c.643.135 1.138.398 1.485.787.347.385.52.88.52 1.485 0 .826-.268 1.467-.805 1.924-.534.453-1.289.679-2.266.679Zm0-1.168c.554 0 .981-.131 1.282-.394.304-.262.457-.63.457-1.104 0-.508-.153-.904-.457-1.187-.3-.284-.728-.425-1.282-.425-.555 0-.984.141-1.289.425-.3.283-.45.679-.45 1.187 0 .474.15.842.45 1.104.305.263.734.394 1.289.394Zm0-4.329c.474 0 .84-.108 1.098-.324.258-.22.387-.522.387-.908 0-.44-.13-.778-.387-1.015-.258-.237-.624-.356-1.098-.356-.474 0-.84.119-1.099.356-.258.237-.387.575-.387 1.015 0 .386.13.688.387.908.259.216.625.324 1.099.324Zm-.61 24.158c-.787 0-1.394-.243-1.822-.73-.427-.487-.64-1.174-.64-2.063 0-.96.27-1.707.812-2.241.546-.537 1.303-.806 2.272-.806 1.046 0 1.814.26 2.305.781.495.521.742 1.331.742 2.431v.559c0 1.718-.438 3.028-1.314 3.929-.872.897-2.202 1.39-3.993 1.479l-.126-1.206c2.678-.114 4.02-1.316 4.024-3.606h-.114c-.127.47-.381.834-.762 1.092-.377.254-.838.381-1.384.381Zm.476-1.168c.588 0 1.041-.152 1.359-.457.317-.305.476-.736.476-1.295 0-.55-.153-.979-.457-1.288-.305-.309-.73-.464-1.276-.464-.538 0-.957.165-1.257.495-.3.33-.45.792-.45 1.384 0 .521.137.923.412 1.206.28.279.677.419 1.193.419ZM29.08 262v-1.206h2.26v-6.5l-2.133.736v-1.282l2.133-.762h1.32v7.808h2.019V262h-5.599Zm10.542.127c-2.048 0-3.073-1.523-3.073-4.57 0-3.132 1.025-4.698 3.073-4.698s3.072 1.566 3.072 4.698c0 3.047-1.024 4.57-3.072 4.57Zm0-1.168c1.142 0 1.714-1.134 1.714-3.402 0-2.353-.572-3.53-1.714-3.53-1.143 0-1.714 1.177-1.714 3.53 0 2.268.571 3.402 1.714 3.402Zm0-2.45c-.284 0-.514-.087-.692-.26-.174-.178-.26-.409-.26-.692 0-.288.086-.519.26-.692.178-.174.408-.261.692-.261.287 0 .518.087.692.261.173.173.26.404.26.692 0 .283-.087.514-.26.692-.174.173-.405.26-.692.26ZM29.079 284v-1.206h2.26v-6.5l-2.133.736v-1.282l2.133-.762h1.32v7.808h2.019V284h-5.599Zm7.812 0v-1.206h2.26v-6.5l-2.133.736v-1.282l2.133-.762h1.32v7.808h2.019V284H36.89Zm-7.812 22v-1.206h2.26v-6.5l-2.133.736v-1.282l2.133-.762h1.32v7.808h2.019V306h-5.599Zm7.698 0v-1.447c1.392-.77 2.431-1.57 3.117-2.4.69-.833 1.034-1.692 1.034-2.577 0-1.032-.512-1.549-1.536-1.549-.343 0-.7.1-1.073.299a3.095 3.095 0 0 0-.958.793l-.876-.869c.292-.419.707-.756 1.244-1.01a3.905 3.905 0 0 1 1.689-.381c1.895 0 2.843.906 2.843 2.717 0 .91-.29 1.784-.87 2.622-.575.833-1.453 1.635-2.633 2.406v.19h3.884V306h-5.865Z" fill="#474747"></path><circle cx="23" cy="23" r="3.5" stroke="#E22033"></circle><circle cx="39" cy="23" r="3.5" stroke="#E2DA20"></circle><circle cx="55" cy="23" r="3.5" stroke="#00E472"></circle></svg>